<?xml version="1.0" encoding="UTF-8" standalone="no"?>
<!-- Created with Inkscape (http://www.inkscape.org/) -->

<svg
   xmlns:dc="http://purl.org/dc/elements/1.1/"
   xmlns:cc="http://creativecommons.org/ns#"
   xmlns:rdf="http://www.w3.org/1999/02/22-rdf-syntax-ns#"
   xmlns:svg="http://www.w3.org/2000/svg"
   xmlns="http://www.w3.org/2000/svg"
   xmlns:xlink="http://www.w3.org/1999/xlink"
   xmlns:sodipodi="http://sodipodi.sourceforge.net/DTD/sodipodi-0.dtd"
   xmlns:inkscape="http://www.inkscape.org/namespaces/inkscape"
   width="463mm"
   height="210mm"
   viewBox="0 0 463 210"
   version="1.1"
   id="svg8"
   inkscape:version="0.92.3 (2405546, 2018-03-11)"
   sodipodi:docname="model_unipampa.svg">
  <defs
     id="defs2">
    <linearGradient
       inkscape:collect="always"
       id="linearGradient821">
      <stop
         style="stop-color:#018234;stop-opacity:1"
         offset="0"
         id="stop817" />
      <stop
         style="stop-color:#000000;stop-opacity:1"
         offset="1"
         id="stop819" />
    </linearGradient>
    <linearGradient
       inkscape:collect="always"
       xlink:href="#linearGradient821"
       id="linearGradient823"
       x1="-89.142143"
       y1="290.22656"
       x2="214.43155"
       y2="288.71466"
       gradientUnits="userSpaceOnUse"
       gradientTransform="matrix(1.4063568,0,0,1,22.617841,-6.4904457)" />
  </defs>
  <sodipodi:namedview
     id="base"
     pagecolor="#ffffff"
     bordercolor="#666666"
     borderopacity="1.0"
     inkscape:pageopacity="0.0"
     inkscape:pageshadow="2"
     inkscape:zoom="0.35"
     inkscape:cx="1355.3438"
     inkscape:cy="202.73945"
     inkscape:document-units="mm"
     inkscape:current-layer="layer1"
     showgrid="false"
     inkscape:window-width="1323"
     inkscape:window-height="713"
     inkscape:window-x="0"
     inkscape:window-y="27"
     inkscape:window-maximized="1" />
  <metadata
     id="metadata5">
    <rdf:RDF>
      <cc:Work
         rdf:about="">
        <dc:format>image/svg+xml</dc:format>
        <dc:type
           rdf:resource="http://purl.org/dc/dcmitype/StillImage" />
        <dc:title></dc:title>
      </cc:Work>
    </rdf:RDF>
  </metadata>
  <g
     inkscape:label="Layer 1"
     inkscape:groupmode="layer"
     id="layer1"
     transform="translate(0,-87)">
    <rect
       style="opacity:1;fill:url(#linearGradient823);fill-opacity:1;fill-rule:nonzero;stroke:none;stroke-width:0.43285319;stroke-linejoin:miter;stroke-miterlimit:4;stroke-dasharray:0.4328532, 0.4328532;stroke-dashoffset:0;stroke-opacity:1"
       id="rect815"
       width="463.07962"
       height="30.468725"
       x="-0.68648636"
       y="266.98987" />
    <path
       style="fill:#009640;stroke-width:0.13029927"
       inkscape:connector-curvature="0"
       d="m 325.5209,276.86452 c 0.13173,-0.29083 0.20496,-0.61345 0.20496,-0.9534 0,-1.2785 -1.0364,-2.31477 -2.3149,-2.31477 -1.27849,0 -2.31502,1.0364 -2.31502,2.31477 0,0.3406 0.0736,0.66401 0.20574,0.95509 -1.15406,0.13109 -2.05078,1.11068 -2.05078,2.29992 0,1.27849 1.0364,2.31476 2.31503,2.31476 0.49787,0 0.95913,-0.15714 1.33687,-0.42477 h 1.03249 c 0.3776,0.26763 0.83886,0.42477 1.33687,0.42477 1.27862,0 2.31489,-1.0364 2.31489,-2.31476 -1.3e-4,-1.19446 -0.90466,-2.17756 -2.06615,-2.30161 m -11.34881,11.15909 c 1.26547,-0.40106 5.6533,-1.35798 16.28898,-0.0623 12.02154,1.46443 15.90198,0.0565 16.38878,-0.14893 v 0.51702 c -1.03119,0.36015 -5.32195,1.46887 -16.44572,0.11375 -11.17747,-1.36162 -15.31499,-0.24001 -16.23204,0.0893 z"
       id="path975" />
    <path
       style="fill:#ffffff;stroke-width:0.13029927"
       inkscape:connector-curvature="0"
       d="m 406.51519,285.04744 c 6.5e-4,-0.0586 0.0182,-0.10554 0.0516,-0.14137 0.0341,-0.0357 0.0797,-0.0615 0.13734,-0.0774 0.0575,-0.0164 0.12261,-0.0246 0.19467,-0.0241 0.0474,0 0.0939,0.002 0.13903,0.004 0.0452,0.002 0.0879,0.005 0.12834,0.007 0,0.054 -0.009,0.10672 -0.0275,0.15831 -0.0176,0.0511 -0.044,0.0973 -0.078,0.13851 -0.0341,0.0417 -0.0752,0.0744 -0.12313,0.0986 -0.0481,0.0245 -0.10203,0.0369 -0.16184,0.0375 -0.0499,0 -0.0945,-0.008 -0.13316,-0.0242 -0.0394,-0.0158 -0.0697,-0.0381 -0.0926,-0.0679 -0.0229,-0.03 -0.034,-0.0663 -0.0347,-0.10854 m 1.27745,0.58062 c -0.0136,-0.0722 -0.0229,-0.14424 -0.0283,-0.21643 -0.005,-0.0722 -0.007,-0.14411 -0.007,-0.21643 v -0.6825 c -5.2e-4,-0.13955 -0.0246,-0.2576 -0.0704,-0.35494 -0.0463,-0.0973 -0.10971,-0.17538 -0.19063,-0.23519 -0.0803,-0.0593 -0.17304,-0.10267 -0.27806,-0.13017 -0.10437,-0.027 -0.21564,-0.0405 -0.3337,-0.0399 -0.13486,-6.5e-4 -0.26281,0.01 -0.38295,0.0304 -0.12078,0.0211 -0.23688,0.0539 -0.34907,0.0998 l 0.0106,0.42934 c 0.0887,-0.0487 0.18242,-0.0841 0.28157,-0.10581 0.0992,-0.0216 0.19988,-0.0322 0.30256,-0.0317 0.0774,-5.2e-4 0.14724,0.008 0.20926,0.0265 0.0628,0.0189 0.11271,0.0511 0.15023,0.0973 0.0374,0.0459 0.0573,0.11037 0.0592,0.19298 -0.041,-0.007 -0.088,-0.013 -0.13955,-0.0177 -0.0521,-0.005 -0.10385,-0.007 -0.15584,-0.007 -0.0571,-6.5e-4 -0.11974,0.002 -0.18776,0.008 -0.0675,0.005 -0.1372,0.0152 -0.20757,0.0305 -0.071,0.0147 -0.13903,0.0369 -0.2047,0.065 -0.0657,0.0288 -0.1243,0.0663 -0.17642,0.11206 -0.0516,0.0461 -0.0933,0.10254 -0.12313,0.17069 -0.0305,0.0675 -0.0463,0.14789 -0.0469,0.24053 6.5e-4,0.0992 0.0193,0.18529 0.0564,0.25799 0.0369,0.0727 0.0868,0.13252 0.15062,0.17942 0.0639,0.0474 0.13734,0.0821 0.21878,0.10568 0.0822,0.0229 0.16899,0.034 0.26046,0.034 0.0861,0 0.16483,-0.0119 0.23402,-0.0352 0.0697,-0.0236 0.13304,-0.0593 0.18998,-0.10801 0.0569,-0.0493 0.10906,-0.11141 0.15662,-0.18763 h 0.007 c 6.6e-4,0.0476 0.002,0.095 0.006,0.14319 0.004,0.0476 0.007,0.0962 0.008,0.14542 h 0.58061 z m -2.74124,-0.93594 c 0,0.098 -0.0159,0.18424 -0.0462,0.2576 -0.0304,0.0738 -0.0744,0.13134 -0.13147,0.17239 -0.0568,0.0409 -0.12548,0.0621 -0.20588,0.0625 -0.0709,-5.2e-4 -0.13603,-0.0216 -0.19401,-0.0622 -0.058,-0.0399 -0.10502,-0.0956 -0.13955,-0.16548 -0.0347,-0.0704 -0.0528,-0.15063 -0.0533,-0.24054 5.3e-4,-0.092 0.0169,-0.17408 0.0486,-0.24626 0.0323,-0.0715 0.0769,-0.12782 0.13486,-0.16965 0.0581,-0.0409 0.1256,-0.0621 0.20352,-0.0627 0.0618,6.5e-4 0.11623,0.013 0.16366,0.037 0.0481,0.0241 0.0881,0.0569 0.12092,0.0992 0.0322,0.0416 0.0569,0.0903 0.0739,0.14424 0.0167,0.0549 0.025,0.11271 0.025,0.17382 z m -1.4041,1.67487 h 0.63338 v -0.99588 h 0.007 c 0.0405,0.0722 0.0921,0.13082 0.15427,0.17486 0.0623,0.0434 0.13017,0.0756 0.20405,0.095 0.0734,0.0199 0.14789,0.03 0.22229,0.0294 0.13669,-10e-4 0.25695,-0.027 0.36119,-0.0787 0.10385,-0.0521 0.19128,-0.12313 0.26217,-0.21447 0.0704,-0.0909 0.12378,-0.19597 0.16013,-0.31558 0.0358,-0.1191 0.0541,-0.24692 0.0541,-0.38347 0,-0.0893 -0.0112,-0.17838 -0.033,-0.26633 -0.0223,-0.0886 -0.0545,-0.17239 -0.0973,-0.25096 -0.0427,-0.0792 -0.0962,-0.14906 -0.15949,-0.21004 -0.0633,-0.0615 -0.13616,-0.10972 -0.21877,-0.14477 -0.0827,-0.0348 -0.17486,-0.0528 -0.27624,-0.0533 -0.0968,0 -0.18945,0.0129 -0.27688,0.0399 -0.088,0.0263 -0.16652,0.0668 -0.23689,0.12209 -0.0697,0.0551 -0.12612,0.12535 -0.16899,0.21109 h -0.007 v -0.33083 h -0.584 z m -3.50479,-0.73893 h 0.63338 v -0.77411 c 5.3e-4,-0.19649 0.0322,-0.34125 0.095,-0.43455 0.0628,-0.0933 0.15076,-0.13955 0.26386,-0.1389 0.0599,5.2e-4 0.10802,0.0164 0.14541,0.0474 0.0377,0.0315 0.0646,0.0744 0.0822,0.12835 0.0176,0.0546 0.0258,0.11675 0.0258,0.18659 v 0.98532 h 0.63325 v -0.77411 c 0.001,-0.19649 0.033,-0.34125 0.0951,-0.43455 0.0626,-0.0933 0.15063,-0.13955 0.26386,-0.1389 0.0597,5.2e-4 0.10841,0.0164 0.14528,0.0474 0.0375,0.0315 0.065,0.0744 0.0822,0.12835 0.0176,0.0546 0.0263,0.11675 0.0257,0.18659 v 0.98532 h 0.63339 v -1.08031 c 6.5e-4,-0.12431 -0.008,-0.23571 -0.027,-0.3337 -0.0188,-0.098 -0.0516,-0.18138 -0.0986,-0.24991 -0.0473,-0.0685 -0.11297,-0.12144 -0.19819,-0.15714 -0.0844,-0.0364 -0.19245,-0.0545 -0.32379,-0.0545 -0.0873,0 -0.17108,0.0117 -0.25161,0.0362 -0.0803,0.0246 -0.1548,0.0627 -0.22281,0.11506 -0.0679,0.0516 -0.12678,0.11844 -0.17643,0.20053 -0.0335,-0.0797 -0.0781,-0.14541 -0.13434,-0.19766 -0.0569,-0.0523 -0.12209,-0.091 -0.19649,-0.11623 -0.0745,-0.0258 -0.15531,-0.038 -0.24274,-0.038 -0.0968,0 -0.18763,0.0129 -0.27337,0.0399 -0.0857,0.027 -0.16249,0.0679 -0.22998,0.12431 -0.0675,0.0563 -0.12248,0.12769 -0.16548,0.21577 h -0.007 v -0.33786 h -0.57709 v 1.83331 z m -1.64685,-0.58062 c 5.2e-4,-0.0586 0.0182,-0.10554 0.0516,-0.14137 0.0341,-0.0357 0.0797,-0.0615 0.13733,-0.0774 0.0573,-0.0164 0.12248,-0.0246 0.19454,-0.0241 0.0476,0 0.0939,0.002 0.13916,0.004 0.0451,0.002 0.088,0.005 0.12834,0.007 0,0.054 -0.009,0.10672 -0.0275,0.15831 -0.0177,0.0511 -0.044,0.0973 -0.0782,0.13851 -0.034,0.0417 -0.075,0.0744 -0.12313,0.0986 -0.0481,0.0245 -0.1019,0.0369 -0.16184,0.0375 -0.0499,0 -0.0945,-0.008 -0.13303,-0.0242 -0.0393,-0.0158 -0.0698,-0.0381 -0.0928,-0.0679 -0.0228,-0.03 -0.034,-0.0663 -0.0345,-0.10854 z m 1.27732,0.58062 c -0.0136,-0.0722 -0.0228,-0.14424 -0.0281,-0.21643 -0.005,-0.0722 -0.007,-0.14411 -0.007,-0.21643 v -0.6825 c -5.2e-4,-0.13955 -0.0245,-0.2576 -0.0704,-0.35494 -0.0461,-0.0973 -0.10958,-0.17538 -0.1905,-0.23519 -0.0804,-0.0593 -0.17304,-0.10267 -0.27806,-0.13017 -0.10437,-0.027 -0.21577,-0.0405 -0.33369,-0.0399 -0.13486,-6.5e-4 -0.26282,0.01 -0.38295,0.0304 -0.12092,0.0211 -0.23689,0.0539 -0.34908,0.0998 l 0.0106,0.42934 c 0.0886,-0.0487 0.18242,-0.0841 0.28158,-0.10581 0.099,-0.0216 0.19987,-0.0322 0.30255,-0.0317 0.0774,-5.2e-4 0.14724,0.008 0.20939,0.0265 0.0627,0.0189 0.11258,0.0511 0.15011,0.0973 0.0374,0.0459 0.0573,0.11037 0.0591,0.19298 -0.041,-0.007 -0.0879,-0.013 -0.13955,-0.0177 -0.0523,-0.005 -0.10385,-0.007 -0.15597,-0.007 -0.0569,-6.5e-4 -0.11974,0.002 -0.18763,0.008 -0.0675,0.005 -0.1372,0.0152 -0.2077,0.0305 -0.071,0.0147 -0.13889,0.0369 -0.20457,0.065 -0.0657,0.0288 -0.1243,0.0663 -0.17655,0.11206 -0.0516,0.0461 -0.0932,0.10254 -0.123,0.17069 -0.0305,0.0675 -0.0464,0.14789 -0.0469,0.24053 5.2e-4,0.0992 0.0193,0.18529 0.0563,0.25799 0.0369,0.0727 0.0868,0.13252 0.15062,0.17942 0.064,0.0474 0.13734,0.0821 0.21891,0.10568 0.0822,0.0229 0.16887,0.034 0.26034,0.034 0.0863,0 0.16495,-0.0119 0.23401,-0.0352 0.0698,-0.0236 0.13317,-0.0593 0.19011,-0.10801 0.0569,-0.0493 0.10906,-0.11141 0.15649,-0.18763 h 0.007 c 5.2e-4,0.0476 0.002,0.095 0.006,0.14319 0.004,0.0476 0.007,0.0962 0.008,0.14542 h 0.58061 z m -3.2795,-1.99176 h 0.16887 c 0.0756,-5.2e-4 0.14424,0.009 0.20522,0.03 0.0603,0.0211 0.10906,0.0558 0.14489,0.10372 0.0356,0.0487 0.0538,0.1144 0.0545,0.19714 -6.6e-4,0.085 -0.0189,0.15245 -0.0545,0.20171 -0.0358,0.0494 -0.0846,0.0846 -0.14489,0.1058 -0.061,0.021 -0.12965,0.0309 -0.20522,0.0304 h -0.16887 z m -0.65449,1.99176 h 0.65449 v -0.85867 h 0.25317 c 0.20483,-5.2e-4 0.38008,-0.0322 0.52498,-0.095 0.14476,-0.0627 0.25629,-0.1531 0.33317,-0.27102 0.0774,-0.11779 0.1161,-0.25969 0.11662,-0.42582 10e-4,-0.27493 -0.0891,-0.47859 -0.26972,-0.60993 -0.1806,-0.13134 -0.45813,-0.19715 -0.83157,-0.19584 h -0.78114 z m -2.44572,-0.40119 c -0.0728,-5.2e-4 -0.13538,-0.0146 -0.18763,-0.0422 -0.0521,-0.0275 -0.0945,-0.065 -0.12783,-0.1131 -0.0328,-0.0474 -0.0573,-0.10202 -0.0727,-0.16366 -0.0158,-0.0615 -0.0235,-0.12665 -0.0235,-0.19466 0,-0.0691 0.008,-0.13486 0.0235,-0.19649 0.0152,-0.0623 0.0399,-0.11727 0.0727,-0.16548 0.0335,-0.048 0.0757,-0.0856 0.12783,-0.11323 0.0523,-0.0275 0.11492,-0.0414 0.18763,-0.0422 0.0728,7.8e-4 0.13538,0.0147 0.18776,0.0422 0.052,0.0276 0.0943,0.0653 0.12769,0.11323 0.0328,0.0481 0.0575,0.10319 0.0728,0.16548 0.0158,0.0616 0.0234,0.12743 0.0234,0.19649 0,0.068 -0.008,0.13316 -0.0234,0.19466 -0.0152,0.0616 -0.04,0.11623 -0.0728,0.16366 -0.0335,0.0481 -0.0757,0.0856 -0.12769,0.1131 -0.0524,0.0276 -0.11492,0.0417 -0.18776,0.0422 z m 0,0.44341 c 0.15193,0 0.29265,-0.0216 0.4223,-0.0645 0.12899,-0.0429 0.24157,-0.10502 0.33786,-0.18711 0.096,-0.0822 0.17122,-0.18242 0.22464,-0.30099 0.0533,-0.11779 0.0808,-0.25331 0.0816,-0.40458 -7.8e-4,-0.15245 -0.0283,-0.28809 -0.0816,-0.40706 -0.0533,-0.11909 -0.12848,-0.21929 -0.22464,-0.30138 -0.0962,-0.0826 -0.20887,-0.14476 -0.33786,-0.18763 -0.12965,-0.0427 -0.27037,-0.0644 -0.4223,-0.0644 -0.15193,0 -0.29265,0.0216 -0.42165,0.0644 -0.12952,0.0429 -0.24223,0.10515 -0.33839,0.18763 -0.0962,0.0822 -0.17121,0.18229 -0.22463,0.30138 -0.0534,0.11897 -0.081,0.25461 -0.0816,0.40706 5.2e-4,0.15127 0.0281,0.28679 0.0816,0.40458 0.0533,0.11844 0.12834,0.21877 0.22463,0.30099 0.096,0.0821 0.20887,0.14411 0.33839,0.18711 0.129,0.0429 0.26972,0.0645 0.42165,0.0645 z m -2.76222,-0.97816 c 0,-0.0611 0.008,-0.11896 0.0251,-0.17356 0.0171,-0.0539 0.0416,-0.10268 0.0738,-0.14424 0.0328,-0.0422 0.0734,-0.0751 0.12092,-0.0992 0.0474,-0.0241 0.10202,-0.0364 0.16365,-0.037 0.0781,6.5e-4 0.14594,0.0218 0.20353,0.0623 0.058,0.041 0.10268,0.0968 0.13486,0.16887 0.0323,0.0717 0.0482,0.1544 0.0487,0.24744 -5.2e-4,0.0898 -0.0188,0.17017 -0.0533,0.24053 -0.0347,0.0697 -0.0816,0.12561 -0.13968,0.16548 -0.058,0.0405 -0.12248,0.0616 -0.19402,0.0621 -0.0797,-5.2e-4 -0.14841,-0.0216 -0.20587,-0.0625 -0.0569,-0.041 -0.10085,-0.0986 -0.13147,-0.17239 -0.0305,-0.0736 -0.0463,-0.15988 -0.0463,-0.25786 z m 1.40385,-1.70327 h -0.6369 v 1.04161 h -0.007 c -0.0539,-0.0697 -0.11375,-0.12561 -0.1789,-0.16587 -0.065,-0.0405 -0.13551,-0.0698 -0.21109,-0.0869 -0.0752,-0.0176 -0.15544,-0.0257 -0.24001,-0.025 -0.10137,5.2e-4 -0.19349,0.0181 -0.2761,0.0526 -0.0827,0.0347 -0.15545,0.0827 -0.2189,0.1432 -0.0632,0.061 -0.11675,0.13017 -0.15949,0.20926 -0.0427,0.0787 -0.075,0.16248 -0.0973,0.25109 -0.0216,0.0886 -0.033,0.17825 -0.033,0.2692 0,0.13668 0.0182,0.26437 0.0541,0.38347 0.0362,0.11961 0.0897,0.22463 0.16014,0.31558 0.0709,0.0913 0.15832,0.16235 0.26282,0.21447 0.10371,0.0516 0.22398,0.0774 0.36079,0.0787 0.0985,-6.6e-4 0.18998,-0.0176 0.27494,-0.0506 0.0849,-0.0328 0.15909,-0.0768 0.22046,-0.13252 0.0616,-0.0558 0.10672,-0.11792 0.13434,-0.18645 h 0.007 v 0.32718 h 0.584 v -2.63908 z m -4.14873,2.63921 h 0.63338 v -2.63921 h -0.63338 z m -1.72073,-0.58062 c 6.5e-4,-0.0586 0.0182,-0.10554 0.0516,-0.14137 0.0343,-0.0357 0.0799,-0.0615 0.13746,-0.0774 0.0573,-0.0164 0.12235,-0.0246 0.19454,-0.0241 0.0476,0 0.0939,0.002 0.13916,0.004 0.0451,0.002 0.0878,0.005 0.12821,0.007 0,0.054 -0.009,0.10672 -0.0275,0.15831 -0.0177,0.0511 -0.044,0.0973 -0.0781,0.13851 -0.0341,0.0417 -0.0752,0.0744 -0.12326,0.0986 -0.0479,0.0245 -0.1019,0.0369 -0.1617,0.0375 -0.0499,0 -0.0945,-0.008 -0.13317,-0.0242 -0.0392,-0.0158 -0.0697,-0.0381 -0.0926,-0.0679 -0.0229,-0.03 -0.034,-0.0663 -0.0347,-0.10854 z m 1.27745,0.58062 c -0.0135,-0.0722 -0.0229,-0.14424 -0.0281,-0.21643 -0.005,-0.0722 -0.007,-0.14411 -0.007,-0.21643 v -0.6825 c -5.2e-4,-0.13955 -0.0245,-0.2576 -0.0704,-0.35494 -0.0463,-0.0973 -0.10971,-0.17538 -0.19063,-0.23519 -0.0803,-0.0593 -0.17291,-0.10267 -0.27793,-0.13017 -0.1045,-0.027 -0.2159,-0.0405 -0.33369,-0.0399 -0.13499,-6.5e-4 -0.26295,0.01 -0.38308,0.0304 -0.12079,0.0211 -0.23689,0.0539 -0.34908,0.0998 l 0.0106,0.42934 c 0.0887,-0.0487 0.18242,-0.0841 0.28171,-0.10581 0.099,-0.0216 0.19987,-0.0322 0.30242,-0.0317 0.0775,-5.2e-4 0.14724,0.008 0.20939,0.0265 0.0628,0.0189 0.11258,0.0511 0.15011,0.0973 0.0375,0.0459 0.0573,0.11037 0.0591,0.19298 -0.0409,-0.007 -0.0879,-0.013 -0.13955,-0.0177 -0.0521,-0.005 -0.10372,-0.007 -0.15597,-0.007 -0.0568,-6.5e-4 -0.11961,0.002 -0.1875,0.008 -0.0676,0.005 -0.13733,0.0152 -0.20769,0.0305 -0.071,0.0147 -0.1389,0.0369 -0.20457,0.065 -0.0658,0.0288 -0.12431,0.0663 -0.17656,0.11206 -0.0516,0.0461 -0.0933,0.10254 -0.12313,0.17069 -0.0305,0.0675 -0.0463,0.14789 -0.0469,0.24053 6.5e-4,0.0992 0.0193,0.18529 0.0564,0.25799 0.0369,0.0727 0.0868,0.13252 0.15062,0.17942 0.064,0.0474 0.13721,0.0821 0.21878,0.10568 0.0822,0.0229 0.16887,0.034 0.26047,0.034 0.0861,0 0.16482,-0.0119 0.23401,-0.0352 0.0697,-0.0236 0.13317,-0.0593 0.18998,-0.10801 0.0571,-0.0493 0.10906,-0.11141 0.15662,-0.18763 h 0.007 c 6.5e-4,0.0476 0.002,0.095 0.006,0.14319 0.004,0.0476 0.007,0.0962 0.008,0.14542 h 0.58061 z m -2.00231,-1.85442 c -0.0322,-0.005 -0.0662,-0.0104 -0.10319,-0.0146 -0.0369,-0.004 -0.0738,-0.006 -0.11128,-0.006 -0.091,5.2e-4 -0.17082,0.0158 -0.23819,0.0468 -0.0679,0.031 -0.12665,0.0744 -0.1759,0.13134 -0.0494,0.0569 -0.0921,0.12378 -0.12783,0.20183 h -0.007 v -0.33786 h -0.57723 v 1.83331 h 0.63339 v -0.77411 c 0,-0.12027 0.0182,-0.22294 0.0539,-0.30842 0.0357,-0.0849 0.0873,-0.15075 0.15597,-0.19649 0.0687,-0.0452 0.15258,-0.068 0.25109,-0.0685 0.0369,-6.5e-4 0.0734,5.2e-4 0.10841,0.002 0.0358,0.002 0.071,0.009 0.10606,0.0189 z m -2.94528,0.76355 c 0.005,-0.071 0.0198,-0.13551 0.0469,-0.19336 0.0263,-0.0575 0.0645,-0.10333 0.11479,-0.13799 0.0507,-0.034 0.11388,-0.0516 0.19011,-0.0521 0.084,6.5e-4 0.15192,0.0182 0.20404,0.0521 0.0516,0.0347 0.0893,0.0804 0.11323,0.13799 0.0235,0.0578 0.0352,0.12235 0.0347,0.19336 z m 1.27393,0.35898 v -0.11623 c 0,-0.10958 -0.01,-0.21512 -0.031,-0.31611 -0.0212,-0.10137 -0.0541,-0.19531 -0.0993,-0.28144 -0.0451,-0.0856 -0.10371,-0.16131 -0.1759,-0.22529 -0.0722,-0.0645 -0.15962,-0.1144 -0.26216,-0.1501 -0.10268,-0.0358 -0.22164,-0.0539 -0.35728,-0.0545 -0.14307,0 -0.27441,0.0216 -0.39403,0.0644 -0.11909,0.0429 -0.22281,0.10515 -0.31024,0.18724 -0.0879,0.0821 -0.15597,0.18229 -0.20405,0.30086 -0.048,0.11779 -0.0728,0.25278 -0.0734,0.40471 5.2e-4,0.15128 0.0281,0.28666 0.0816,0.4051 0.0533,0.11896 0.12834,0.21955 0.22464,0.30203 0.0962,0.0827 0.20887,0.14542 0.33838,0.18816 0.129,0.0435 0.26972,0.0645 0.42165,0.0651 0.11844,0 0.23467,-0.009 0.34777,-0.0276 0.11375,-0.0188 0.22177,-0.0481 0.32432,-0.0886 v -0.44693 c -0.0955,0.0506 -0.19115,0.0868 -0.28614,0.10854 -0.0955,0.0223 -0.18659,0.0328 -0.27337,0.0323 -0.1032,5.2e-4 -0.19284,-0.0112 -0.26907,-0.0353 -0.0763,-0.0235 -0.13733,-0.0611 -0.18294,-0.11257 -0.0453,-0.0521 -0.0745,-0.12027 -0.0863,-0.20405 h 1.26677 z m -3.60342,-0.20405 c 0,-0.0611 0.008,-0.11896 0.0251,-0.17356 0.0171,-0.0539 0.0416,-0.10268 0.0738,-0.14424 0.033,-0.0422 0.0734,-0.0751 0.12092,-0.0992 0.0476,-0.0241 0.10203,-0.0364 0.16366,-0.037 0.0781,6.5e-4 0.14593,0.0218 0.20366,0.0623 0.0578,0.041 0.10254,0.0968 0.13486,0.16887 0.0322,0.0717 0.0481,0.1544 0.0486,0.24744 -5.2e-4,0.0898 -0.0188,0.17017 -0.0534,0.24053 -0.0345,0.0697 -0.0814,0.12561 -0.13955,0.16548 -0.058,0.0405 -0.12248,0.0616 -0.19401,0.0621 -0.0797,-5.2e-4 -0.14841,-0.0216 -0.20587,-0.0625 -0.057,-0.041 -0.10086,-0.0986 -0.13148,-0.17239 -0.0305,-0.0736 -0.0462,-0.15988 -0.0462,-0.25786 z m 1.4041,-1.70327 h -0.63703 v 1.04161 h -0.007 c -0.0539,-0.0697 -0.11375,-0.12561 -0.1789,-0.16587 -0.065,-0.0405 -0.13538,-0.0698 -0.21108,-0.0869 -0.0752,-0.0176 -0.15545,-0.0257 -0.23988,-0.025 -0.10151,5.2e-4 -0.19363,0.0181 -0.27624,0.0526 -0.0827,0.0347 -0.15545,0.0827 -0.21877,0.1432 -0.0633,0.061 -0.11675,0.13017 -0.15962,0.20926 -0.0427,0.0787 -0.075,0.16248 -0.0973,0.25109 -0.0216,0.0886 -0.0328,0.17825 -0.0328,0.2692 0,0.13668 0.0182,0.26437 0.0539,0.38347 0.0363,0.11961 0.0896,0.22463 0.16014,0.31558 0.071,0.0913 0.15844,0.16235 0.26281,0.21447 0.10372,0.0516 0.22398,0.0774 0.3608,0.0787 0.0985,-6.6e-4 0.18997,-0.0176 0.27493,-0.0506 0.0849,-0.0328 0.15909,-0.0768 0.22047,-0.13252 0.0616,-0.0558 0.10671,-0.11792 0.13433,-0.18645 h 0.007 v 0.32718 h 0.58413 v -2.63908 z m -3.57528,1.54834 c 0.005,-0.071 0.0198,-0.13551 0.0469,-0.19336 0.0263,-0.0575 0.0645,-0.10333 0.11479,-0.13799 0.0507,-0.034 0.11388,-0.0516 0.19011,-0.0521 0.084,6.5e-4 0.15193,0.0182 0.20405,0.0521 0.0516,0.0347 0.0892,0.0804 0.11323,0.13799 0.0234,0.0578 0.0352,0.12235 0.0347,0.19336 z m 1.27394,0.35898 v -0.11623 c 0,-0.10958 -0.01,-0.21512 -0.031,-0.31611 -0.0212,-0.10137 -0.0541,-0.19531 -0.0993,-0.28144 -0.0451,-0.0856 -0.10372,-0.16131 -0.17591,-0.22529 -0.0722,-0.0645 -0.15961,-0.1144 -0.26216,-0.1501 -0.10267,-0.0358 -0.22164,-0.0539 -0.35728,-0.0545 -0.14307,0 -0.27441,0.0216 -0.39402,0.0644 -0.1191,0.0429 -0.22282,0.10515 -0.31025,0.18724 -0.088,0.0821 -0.15597,0.18229 -0.20405,0.30086 -0.048,0.11779 -0.0728,0.25278 -0.0734,0.40471 5.2e-4,0.15128 0.0281,0.28666 0.0816,0.4051 0.0533,0.11896 0.12835,0.21955 0.22464,0.30203 0.0962,0.0827 0.20887,0.14542 0.33839,0.18816 0.12899,0.0435 0.26972,0.0645 0.42164,0.0651 0.11845,0 0.23467,-0.009 0.34777,-0.0276 0.11375,-0.0188 0.22177,-0.0481 0.32445,-0.0886 v -0.44693 c -0.0956,0.0506 -0.19128,0.0868 -0.28627,0.10854 -0.0955,0.0223 -0.18659,0.0328 -0.27337,0.0323 -0.10319,5.2e-4 -0.19284,-0.0112 -0.26906,-0.0353 -0.0764,-0.0235 -0.13734,-0.0611 -0.18295,-0.11257 -0.0453,-0.0521 -0.0745,-0.12027 -0.0863,-0.20405 h 1.26677 z m -3.76161,0.73189 h 0.65436 v -0.98884 h 0.94662 v -0.46452 h -0.94662 v -0.5384 h 0.98884 v -0.46425 h -1.6432 z m -2.69563,-1.09087 c 0.005,-0.071 0.0199,-0.13551 0.0469,-0.19336 0.0263,-0.0575 0.0645,-0.10333 0.11493,-0.13799 0.0505,-0.034 0.11375,-0.0516 0.1901,-0.0521 0.0839,6.5e-4 0.15193,0.0182 0.20392,0.0521 0.0516,0.0347 0.0894,0.0804 0.11323,0.13799 0.0235,0.0578 0.0353,0.12235 0.0347,0.19336 z m 1.2738,0.35898 v -0.11623 c 0,-0.10958 -0.01,-0.21512 -0.031,-0.31611 -0.0211,-0.10137 -0.0539,-0.19531 -0.0992,-0.28144 -0.0452,-0.0856 -0.10385,-0.16131 -0.17603,-0.22529 -0.0721,-0.0645 -0.15962,-0.1144 -0.26216,-0.1501 -0.10268,-0.0358 -0.22164,-0.0539 -0.35715,-0.0545 -0.1432,0 -0.27441,0.0216 -0.39403,0.0644 -0.11909,0.0429 -0.22281,0.10515 -0.31024,0.18724 -0.0881,0.0821 -0.1561,0.18229 -0.20405,0.30086 -0.0481,0.11779 -0.0728,0.25278 -0.0734,0.40471 6.5e-4,0.15128 0.0283,0.28666 0.0816,0.4051 0.0533,0.11896 0.12834,0.21955 0.22463,0.30203 0.0962,0.0827 0.20887,0.14542 0.33852,0.18816 0.129,0.0435 0.26972,0.0645 0.42165,0.0651 0.11844,0 0.23467,-0.009 0.34777,-0.0276 0.11375,-0.0188 0.22164,-0.0481 0.32431,-0.0886 v -0.44693 c -0.0955,0.0506 -0.19128,0.0868 -0.28626,0.10854 -0.0955,0.0223 -0.18659,0.0328 -0.27337,0.0323 -0.1032,5.2e-4 -0.19284,-0.0112 -0.26907,-0.0353 -0.0762,-0.0235 -0.13734,-0.0611 -0.18294,-0.11257 -0.0452,-0.0521 -0.0744,-0.12027 -0.0863,-0.20405 h 1.26664 z m -3.60329,-0.20405 c 0,-0.0611 0.008,-0.11896 0.0251,-0.17356 0.0171,-0.0539 0.0417,-0.10268 0.0739,-0.14424 0.0328,-0.0422 0.0734,-0.0751 0.12092,-0.0992 0.0474,-0.0241 0.10189,-0.0364 0.16353,-0.037 0.0781,6.5e-4 0.14606,0.0218 0.20365,0.0623 0.0579,0.041 0.10268,0.0968 0.13486,0.16887 0.0322,0.0717 0.0481,0.1544 0.0486,0.24744 -5.2e-4,0.0898 -0.0188,0.17017 -0.0533,0.24053 -0.0347,0.0697 -0.0816,0.12561 -0.13955,0.16548 -0.0581,0.0405 -0.12261,0.0616 -0.19414,0.0621 -0.0797,-5.2e-4 -0.14841,-0.0216 -0.20588,-0.0625 -0.0568,-0.041 -0.10072,-0.0986 -0.13134,-0.17239 -0.0306,-0.0736 -0.0464,-0.15988 -0.0464,-0.25786 z m 1.40397,-1.70327 h -0.6369 v 1.04161 h -0.007 c -0.0539,-0.0697 -0.11375,-0.12561 -0.1789,-0.16587 -0.065,-0.0405 -0.13538,-0.0698 -0.21095,-0.0869 -0.0752,-0.0176 -0.15545,-0.0257 -0.24002,-0.025 -0.10137,5.2e-4 -0.19349,0.0181 -0.2761,0.0526 -0.0829,0.0347 -0.15545,0.0827 -0.2189,0.1432 -0.0633,0.061 -0.11675,0.13017 -0.15962,0.20926 -0.0427,0.0787 -0.0751,0.16248 -0.0973,0.25109 -0.0216,0.0886 -0.0328,0.17825 -0.0328,0.2692 0,0.13668 0.0182,0.26437 0.0541,0.38347 0.0362,0.11961 0.0896,0.22463 0.16013,0.31558 0.0709,0.0913 0.15832,0.16235 0.26269,0.21447 0.10385,0.0516 0.22411,0.0774 0.3608,0.0787 0.0986,-6.6e-4 0.18997,-0.0176 0.27506,-0.0506 0.0849,-0.0328 0.15896,-0.0768 0.22033,-0.13252 0.0618,-0.0558 0.10672,-0.11792 0.13434,-0.18645 h 0.007 v 0.32718 h 0.58413 v -2.63908 z m -3.61737,2.05859 c 6.5e-4,-0.0586 0.0184,-0.10554 0.0516,-0.14137 0.034,-0.0357 0.0796,-0.0615 0.13734,-0.0774 0.0573,-0.0164 0.12248,-0.0246 0.19453,-0.0241 0.0476,0 0.0939,0.002 0.13903,0.004 0.0452,0.002 0.088,0.005 0.12835,0.007 0,0.054 -0.009,0.10672 -0.0275,0.15831 -0.0176,0.0511 -0.044,0.0973 -0.0781,0.13851 -0.0341,0.0417 -0.075,0.0744 -0.12313,0.0986 -0.0481,0.0245 -0.10202,0.0369 -0.16183,0.0375 -0.0499,0 -0.0946,-0.008 -0.13304,-0.0242 -0.0394,-0.0158 -0.0698,-0.0381 -0.0926,-0.0679 -0.0228,-0.03 -0.034,-0.0663 -0.0347,-0.10854 z m 1.27733,0.58062 c -0.0136,-0.0722 -0.0229,-0.14424 -0.0282,-0.21643 -0.005,-0.0722 -0.007,-0.14411 -0.007,-0.21643 v -0.6825 c -5.2e-4,-0.13955 -0.0246,-0.2576 -0.0704,-0.35494 -0.0462,-0.0973 -0.10958,-0.17538 -0.1905,-0.23519 -0.0804,-0.0593 -0.17303,-0.10267 -0.27818,-0.13017 -0.10424,-0.027 -0.21578,-0.0405 -0.3337,-0.0399 -0.13486,-6.5e-4 -0.26281,0.01 -0.38295,0.0304 -0.12079,0.0211 -0.23688,0.0539 -0.34894,0.0998 l 0.0105,0.42934 c 0.0886,-0.0487 0.18229,-0.0841 0.28145,-0.10581 0.0993,-0.0216 0.20001,-0.0322 0.30268,-0.0317 0.0774,-5.2e-4 0.14711,0.008 0.20927,0.0265 0.0627,0.0189 0.11257,0.0511 0.1501,0.0973 0.0375,0.0459 0.0575,0.11037 0.0592,0.19298 -0.0409,-0.007 -0.088,-0.013 -0.13955,-0.0177 -0.052,-0.005 -0.10372,-0.007 -0.15584,-0.007 -0.0569,-6.5e-4 -0.11975,0.002 -0.18776,0.008 -0.0674,0.005 -0.13721,0.0152 -0.20757,0.0305 -0.071,0.0147 -0.1389,0.0369 -0.20457,0.065 -0.0658,0.0288 -0.12431,0.0663 -0.17656,0.11206 -0.0516,0.0461 -0.0933,0.10254 -0.12313,0.17069 -0.0304,0.0675 -0.0463,0.14789 -0.0469,0.24053 6.5e-4,0.0992 0.0193,0.18529 0.0564,0.25799 0.037,0.0727 0.0868,0.13252 0.15076,0.17942 0.0639,0.0474 0.1372,0.0821 0.21877,0.10568 0.0821,0.0229 0.16887,0.034 0.26034,0.034 0.0861,0 0.16483,-0.0119 0.23402,-0.0352 0.0698,-0.0236 0.13303,-0.0593 0.1901,-0.10801 0.0568,-0.0493 0.10906,-0.11141 0.15649,-0.18763 h 0.007 c 6.5e-4,0.0476 0.002,0.095 0.006,0.14319 0.003,0.0476 0.006,0.0962 0.008,0.14542 h 0.58049 z m -3.5646,-0.93594 c 0,-0.0611 0.008,-0.11896 0.0252,-0.17356 0.0171,-0.0539 0.0417,-0.10268 0.0739,-0.14424 0.0328,-0.0422 0.0733,-0.0751 0.12091,-0.0992 0.0474,-0.0241 0.1019,-0.0364 0.16353,-0.037 0.078,6.5e-4 0.14606,0.0218 0.20366,0.0623 0.0579,0.041 0.10267,0.0968 0.13486,0.16887 0.0322,0.0717 0.0481,0.1544 0.0486,0.24744 -5.2e-4,0.0898 -0.0188,0.17017 -0.0533,0.24053 -0.0347,0.0697 -0.0816,0.12561 -0.13956,0.16548 -0.058,0.0405 -0.12261,0.0616 -0.19414,0.0621 -0.0797,-5.2e-4 -0.14841,-0.0216 -0.20587,-0.0625 -0.0568,-0.041 -0.10073,-0.0986 -0.13135,-0.17239 -0.0306,-0.0736 -0.0464,-0.15988 -0.0464,-0.25786 z m 1.40397,-1.70327 h -0.6369 v 1.04161 h -0.007 c -0.0539,-0.0697 -0.11375,-0.12561 -0.1789,-0.16587 -0.065,-0.0405 -0.13538,-0.0698 -0.21095,-0.0869 -0.0751,-0.0176 -0.15545,-0.0257 -0.24001,-0.025 -0.10138,5.2e-4 -0.1935,0.0181 -0.27611,0.0526 -0.0829,0.0347 -0.15544,0.0827 -0.21877,0.1432 -0.0635,0.061 -0.11675,0.13017 -0.15975,0.20926 -0.0427,0.0787 -0.0751,0.16248 -0.0973,0.25109 -0.0216,0.0886 -0.0328,0.17825 -0.0328,0.2692 0,0.13668 0.0182,0.26437 0.0541,0.38347 0.0362,0.11961 0.0896,0.22463 0.16014,0.31558 0.0709,0.0913 0.15831,0.16235 0.26268,0.21447 0.10385,0.0516 0.22411,0.0774 0.3608,0.0787 0.0986,-6.6e-4 0.18997,-0.0176 0.27506,-0.0506 0.085,-0.0328 0.15897,-0.0768 0.22034,-0.13252 0.0618,-0.0558 0.10671,-0.11792 0.13433,-0.18645 h 0.007 v 0.32718 h 0.584 v -2.63908 z m -2.43855,0.0423 h -0.63325 v 0.46452 h 0.63325 z m -0.63338,2.59687 h 0.63325 v -1.83331 h -0.63325 z m -1.90381,-0.0457 c 0.0618,0.0199 0.12561,0.0364 0.19194,0.0494 0.0663,0.0129 0.13837,0.0229 0.21577,0.0293 0.0769,0.007 0.16314,0.009 0.2576,0.009 0.0838,0 0.16652,-0.005 0.24861,-0.0171 0.0816,-0.0111 0.15897,-0.0304 0.23155,-0.0573 0.0728,-0.0276 0.13733,-0.0645 0.19362,-0.11101 0.0556,-0.0468 0.1002,-0.10554 0.13186,-0.17538 0.0323,-0.0704 0.0487,-0.15415 0.0494,-0.25161 -10e-4,-0.0992 -0.0182,-0.18125 -0.0523,-0.2464 -0.034,-0.0657 -0.0787,-0.11844 -0.13486,-0.15831 -0.0556,-0.0405 -0.11727,-0.0723 -0.18412,-0.0962 -0.0668,-0.0235 -0.13368,-0.0427 -0.20053,-0.0575 -0.0668,-0.0152 -0.12847,-0.0305 -0.18424,-0.0457 -0.0563,-0.0146 -0.10072,-0.034 -0.13486,-0.0575 -0.034,-0.0235 -0.0511,-0.0551 -0.0521,-0.095 6.5e-4,-0.0253 0.009,-0.0464 0.0263,-0.0628 0.0172,-0.0164 0.04,-0.0293 0.068,-0.0387 0.0288,-0.009 0.0598,-0.0159 0.0945,-0.0199 0.0341,-0.004 0.0685,-0.005 0.1032,-0.005 0.0534,0 0.10984,0.005 0.16835,0.0142 0.0586,0.009 0.11622,0.0228 0.17238,0.0409 0.0564,0.0182 0.10672,0.041 0.15193,0.068 l 0.0493,-0.43989 c -0.10268,-0.0399 -0.20822,-0.0675 -0.31676,-0.0833 -0.10841,-0.0154 -0.2176,-0.0229 -0.32731,-0.0223 -0.0738,0 -0.14776,0.007 -0.22164,0.021 -0.0739,0.0146 -0.14424,0.0363 -0.21109,0.067 -0.0668,0.0298 -0.12678,0.0679 -0.1789,0.11493 -0.0521,0.047 -0.0933,0.10267 -0.123,0.16769 -0.0305,0.0652 -0.0459,0.13955 -0.0464,0.22412 0.001,0.0938 0.0176,0.17173 0.0499,0.23388 0.0322,0.0618 0.0757,0.11206 0.12899,0.15024 0.0533,0.0388 0.11193,0.0692 0.17604,0.0926 0.0638,0.0229 0.12769,0.0422 0.1918,0.0581 0.0639,0.0158 0.12248,0.0322 0.17603,0.0493 0.0533,0.0169 0.0962,0.038 0.12835,0.0645 0.0322,0.0257 0.0493,0.061 0.0499,0.10437 -6.5e-4,0.0416 -0.0136,0.0734 -0.0375,0.0945 -0.0246,0.0218 -0.0564,0.0357 -0.095,0.0434 -0.0387,0.007 -0.0803,0.0106 -0.12431,0.01 -0.0769,-6.6e-4 -0.15075,-0.007 -0.22281,-0.019 -0.0723,-0.0122 -0.13955,-0.0275 -0.20301,-0.0468 -0.0627,-0.0193 -0.11909,-0.0392 -0.16899,-0.061 z m -0.15114,-1.80868 c -0.0323,-0.005 -0.0663,-0.0104 -0.1032,-0.0146 -0.037,-0.004 -0.074,-0.006 -0.11141,-0.006 -0.0909,5.2e-4 -0.17069,0.0158 -0.23818,0.0468 -0.0679,0.031 -0.12665,0.0744 -0.17591,0.13134 -0.0493,0.0569 -0.0921,0.12378 -0.12782,0.20183 h -0.007 v -0.33786 h -0.57709 v 1.83331 h 0.63338 v -0.77411 c 0,-0.12027 0.0182,-0.22294 0.0539,-0.30842 0.0357,-0.0849 0.0874,-0.15075 0.15596,-0.19649 0.0687,-0.0452 0.15246,-0.068 0.25109,-0.0685 0.0369,-6.5e-4 0.0734,5.2e-4 0.10854,0.002 0.0356,0.002 0.0709,0.009 0.10606,0.0189 z m -2.94542,0.76355 c 0.005,-0.071 0.0199,-0.13551 0.047,-0.19336 0.0263,-0.0575 0.0645,-0.10333 0.11492,-0.13799 0.0504,-0.034 0.11376,-0.0516 0.18998,-0.0521 0.0839,6.5e-4 0.15193,0.0182 0.20418,0.0521 0.0516,0.0347 0.0891,0.0804 0.11323,0.13799 0.0234,0.0578 0.0352,0.12235 0.0347,0.19336 z m 1.27394,0.35898 v -0.11623 c 0,-0.10958 -0.01,-0.21512 -0.0311,-0.31611 -0.0211,-0.10137 -0.054,-0.19531 -0.0992,-0.28144 -0.0452,-0.0856 -0.10372,-0.16131 -0.17591,-0.22529 -0.0722,-0.0645 -0.15961,-0.1144 -0.26216,-0.1501 -0.10267,-0.0358 -0.22177,-0.0539 -0.35728,-0.0545 -0.14307,0 -0.27441,0.0216 -0.39415,0.0644 -0.1191,0.0429 -0.22281,0.10515 -0.31025,0.18724 -0.0879,0.0821 -0.15596,0.18229 -0.20404,0.30086 -0.0481,0.11779 -0.0727,0.25278 -0.0734,0.40471 6.5e-4,0.15128 0.0281,0.28666 0.0814,0.4051 0.0533,0.11896 0.12848,0.21955 0.22464,0.30203 0.0962,0.0827 0.20874,0.14542 0.33839,0.18816 0.12912,0.0435 0.26972,0.0645 0.42165,0.0651 0.11844,0 0.23466,-0.009 0.34789,-0.0276 0.11376,-0.0188 0.22164,-0.0481 0.32432,-0.0886 v -0.44693 c -0.0956,0.0506 -0.19128,0.0868 -0.28627,0.10854 -0.0955,0.0223 -0.18646,0.0328 -0.27324,0.0323 -0.10319,5.2e-4 -0.19297,-0.0112 -0.26919,-0.0353 -0.0762,-0.0235 -0.13721,-0.0611 -0.18294,-0.11257 -0.0452,-0.0521 -0.0747,-0.12027 -0.0863,-0.20405 h 1.26703 z m -3.45215,0.73189 h 0.72147 l 0.67899,-1.83331 h -0.62987 l -0.3836,1.3056 h -0.007 l -0.38008,-1.3056 h -0.67912 z m -0.98532,-2.59687 h -0.63339 v 0.46452 h 0.63339 z m -0.63326,2.59687 h 0.63339 v -1.83331 h -0.63339 z m -2.42109,0 h 0.63339 v -0.77411 c 0,-0.19649 0.0335,-0.34125 0.0997,-0.43455 0.0657,-0.0933 0.16418,-0.13955 0.29435,-0.1389 0.0581,-6.5e-4 0.10854,0.0134 0.15258,0.0427 0.0434,0.0293 0.0779,0.0781 0.10203,0.14542 0.0246,0.0675 0.037,0.15831 0.0375,0.27284 v 0.88669 h 0.63339 v -1.14364 c 0,-0.096 -0.0129,-0.1875 -0.0392,-0.27441 -0.0264,-0.0873 -0.0675,-0.16548 -0.12327,-0.23402 -0.0563,-0.0685 -0.12834,-0.12248 -0.21747,-0.16235 -0.0885,-0.04 -0.19531,-0.0605 -0.32014,-0.061 -0.0968,0 -0.18763,0.0129 -0.27337,0.0399 -0.0857,0.027 -0.16248,0.0679 -0.22998,0.12431 -0.0675,0.0563 -0.12261,0.12769 -0.16548,0.21577 h -0.007 v -0.33786 h -0.57723 v 1.83318 z m -0.39051,-2.45601 h -0.65462 v 1.41453 c 6.5e-4,0.0814 -0.006,0.15831 -0.0188,0.22984 -0.0129,0.0722 -0.0352,0.13552 -0.0668,0.19063 -0.0317,0.0551 -0.0745,0.0986 -0.12964,0.12965 -0.0545,0.0317 -0.12379,0.0474 -0.20692,0.048 -0.0833,-5.2e-4 -0.15193,-0.0163 -0.20704,-0.048 -0.0545,-0.031 -0.0979,-0.0745 -0.12952,-0.12965 -0.0311,-0.0551 -0.0534,-0.11844 -0.067,-0.19063 -0.0129,-0.0715 -0.0193,-0.14841 -0.0188,-0.22984 v -1.41453 h -0.65449 v 1.52359 c 5.2e-4,0.16756 0.027,0.31311 0.078,0.43572 0.0516,0.12261 0.12495,0.22411 0.22046,0.30373 0.095,0.0799 0.20822,0.1385 0.33956,0.1772 0.132,0.0387 0.27793,0.058 0.43872,0.058 0.16079,0 0.30673,-0.0193 0.43872,-0.058 0.13147,-0.0388 0.24444,-0.0973 0.34008,-0.1772 0.095,-0.0796 0.16835,-0.18112 0.21994,-0.30373 0.0516,-0.12248 0.0774,-0.26816 0.078,-0.43572 z m -34.56305,-1.20397 h -1.46404 v 2.0642 c 0,0.49775 -0.19415,0.74649 -0.58218,0.74649 -0.31949,0 -0.47911,-0.21447 -0.47911,-0.64407 v -2.16662 h -1.44932 v 2.13 c 0,0.48315 0.0486,0.82245 0.14633,1.01764 0.20014,0.40015 0.58074,0.60016 1.14194,0.60016 0.48797,0 0.89542,-0.20731 1.22234,-0.62218 v 0.53436 h 1.46404 z m 4.26013,1.52985 c 0,-0.47325 -0.0465,-0.80512 -0.13968,-0.99549 -0.20066,-0.41461 -0.58465,-0.62218 -1.15249,-0.62218 -0.49436,0 -0.90545,0.2077 -1.23329,0.62218 v -0.53436 h -1.44931 v 3.65985 h 1.44944 v -2.05678 c 0,-0.50751 0.19545,-0.76133 0.58635,-0.76133 0.3264,0 0.48967,0.2172 0.48967,0.65149 v 2.16662 h 1.44931 z m 0.29279,-1.80113 h 1.44945 v -0.89385 h -1.44945 z m 1.44932,0.27128 h -1.44932 v 3.65985 h 1.44945 v -3.62792 -0.0319 z m 6.49242,2.54735 c -0.0439,0.0976 -0.11349,0.17565 -0.20861,0.23428 -0.0951,0.0585 -0.19154,0.0878 -0.28914,0.0878 -0.0977,0 -0.18554,-0.0427 -0.26359,-0.12808 -0.078,-0.0854 -0.11701,-0.18411 -0.11701,-0.29643 0,-0.27324 0.21708,-0.46843 0.6515,-0.58557 0.14645,-0.0391 0.24887,-0.0659 0.30737,-0.0805 v 0.32952 c 0,0.17083 -0.027,0.31702 -0.0805,0.43898 z m -3.63783,-0.006 c -0.11701,0.30151 -0.29539,0.4524 -0.53435,0.4524 -0.1806,0 -0.32575,-0.10593 -0.4356,-0.31741 -0.10984,-0.21174 -0.16469,-0.49501 -0.16469,-0.85007 0,-0.35507 0.0572,-0.63482 0.17199,-0.83913 0.11453,-0.20405 0.27194,-0.30659 0.47208,-0.30659 0.19023,0 0.34034,0.0998 0.45018,0.29942 0.10984,0.19936 0.1647,0.47156 0.1647,0.81711 1.3e-4,0.2821 -0.0413,0.53032 -0.12431,0.74427 z m 5.13106,-0.0308 v -0.84916 c 0,-0.56602 -0.0855,-0.96135 -0.25617,-1.18586 -0.28796,-0.37565 -0.76864,-0.56367 -1.44202,-0.56367 -0.60016,0 -1.15915,0.16835 -1.67617,0.50517 l 0.40836,0.65137 c 0.31115,-0.25852 0.61253,-0.38803 0.90427,-0.38803 0.29656,0 0.51299,0.12183 0.64902,0.36522 l -0.5909,0.12418 c -0.53514,0.11193 -0.92669,0.26529 -1.17478,0.45996 -0.12418,0.098 -0.22607,0.20417 -0.30555,0.31858 0.005,-0.0652 0.007,-0.13147 0.007,-0.1991 0,-0.54661 -0.14763,-0.98949 -0.44275,-1.32853 -0.29526,-0.33917 -0.67965,-0.50882 -1.15302,-0.50882 -0.24874,0 -0.4623,0.0429 -0.64055,0.12808 -0.17812,0.0855 -0.36224,0.23559 -0.5526,0.45019 v -0.49045 h -1.42 v 4.62849 h 1.42 v -1.45909 c 0.18528,0.21486 0.3561,0.36497 0.51233,0.45019 0.1561,0.0852 0.33917,0.12808 0.54895,0.12808 0.48811,0 0.8979,-0.19271 1.22977,-0.57827 0.11362,-0.13199 0.20783,-0.27428 0.28262,-0.42686 0.0228,0.25786 0.13108,0.48328 0.32496,0.67665 0.21956,0.21916 0.47573,0.32848 0.76851,0.32848 0.41474,0 0.79535,-0.1634 1.14181,-0.49045 0,0.14633 0.0171,0.28054 0.0513,0.4025 h 1.53701 c -0.0878,-0.2778 -0.13173,-0.66088 -0.13173,-1.14885 z m 6.61712,-1.00278 c 0,-0.4928 -0.0563,-0.83692 -0.16848,-1.0321 -0.215,-0.37566 -0.59156,-0.56368 -1.12904,-0.56368 -0.5328,0 -0.95067,0.2077 -1.25387,0.62218 -0.18555,-0.41461 -0.53501,-0.62218 -1.048,-0.62218 -0.54752,0 -0.97021,0.2077 -1.26846,0.62218 v -0.53436 h -1.44932 v 3.65985 h 1.44932 v -2.07684 c 0,-0.20535 0.0149,-0.34973 0.0444,-0.43286 0.0736,-0.20548 0.23349,-0.30828 0.47924,-0.30828 0.18685,0 0.31728,0.0734 0.39103,0.22007 0.0394,0.0784 0.059,0.25695 0.059,0.53566 v 2.06225 h 1.44945 v -2.0788 c 0,-0.18528 0.0172,-0.32444 0.0519,-0.41721 0.0792,-0.21461 0.23767,-0.3221 0.47533,-0.3221 0.18815,0 0.32197,0.0732 0.40106,0.21968 0.0447,0.0831 0.0671,0.23675 0.0671,0.46113 v 2.1373 h 1.44932 z m 6.48525,1.03939 c -0.0439,0.0976 -0.11349,0.17565 -0.20861,0.23428 -0.0951,0.0585 -0.19154,0.0878 -0.28913,0.0878 -0.0977,0 -0.18555,-0.0427 -0.26334,-0.12808 -0.0782,-0.0854 -0.11727,-0.18411 -0.11727,-0.29643 0,-0.27324 0.21695,-0.46843 0.6515,-0.58557 0.14633,-0.0391 0.249,-0.0659 0.30738,-0.0805 v 0.32952 c 0,0.17083 -0.027,0.31702 -0.0805,0.43898 z m -3.63782,-0.006 c -0.11701,0.30151 -0.29526,0.4524 -0.53436,0.4524 -0.18047,0 -0.32575,-0.10593 -0.43546,-0.31741 -0.10971,-0.21174 -0.1647,-0.49501 -0.1647,-0.85007 0,-0.35507 0.0572,-0.63482 0.17186,-0.83913 0.11467,-0.20405 0.27194,-0.30659 0.47221,-0.30659 0.19037,0 0.34034,0.0998 0.45031,0.29942 0.10972,0.19936 0.1647,0.47156 0.1647,0.81711 -1.3e-4,0.2821 -0.0416,0.53032 -0.12456,0.74427 z m 5.13105,-0.0308 v -0.84916 c 0,-0.56602 -0.0855,-0.96135 -0.2563,-1.18586 -0.28783,-0.37565 -0.7685,-0.56367 -1.44189,-0.56367 -0.60016,0 -1.15901,0.16835 -1.6763,0.50517 l 0.40836,0.65137 c 0.31115,-0.25852 0.6124,-0.38803 0.90414,-0.38803 0.2967,0 0.51312,0.12183 0.64903,0.36522 l -0.59091,0.12418 c -0.53527,0.11193 -0.92695,0.26529 -1.17504,0.45996 -0.12418,0.098 -0.22607,0.20417 -0.30555,0.31858 0.005,-0.0652 0.007,-0.13147 0.007,-0.1991 0,-0.54661 -0.14763,-0.98949 -0.44288,-1.32853 -0.29539,-0.33917 -0.67951,-0.50882 -1.15276,-0.50882 -0.249,0 -0.46243,0.0429 -0.64055,0.12808 -0.17825,0.0855 -0.36236,0.23559 -0.5526,0.45019 v -0.49045 h -1.42 v 4.62849 h 1.42 v -1.45909 c 0.18528,0.21486 0.35611,0.36497 0.51234,0.45019 0.15609,0.0852 0.33916,0.12808 0.54895,0.12808 0.48797,0 0.89789,-0.19271 1.22976,-0.57827 0.11375,-0.13212 0.20796,-0.27441 0.28262,-0.42712 0.0228,0.25786 0.13082,0.48354 0.32484,0.67691 0.21955,0.21916 0.47585,0.32848 0.7685,0.32848 0.41487,0 0.79535,-0.1634 1.14194,-0.49045 0,0.14633 0.0169,0.28054 0.0511,0.4025 h 1.53727 c -0.0874,-0.2778 -0.13134,-0.66088 -0.13134,-1.14885 z"
       id="path977" />
  </g>
</svg>
