<?xml version="1.0" encoding="UTF-8" standalone="no"?>
<!-- Created with Inkscape (http://www.inkscape.org/) -->

<svg
   xmlns:dc="http://purl.org/dc/elements/1.1/"
   xmlns:cc="http://creativecommons.org/ns#"
   xmlns:rdf="http://www.w3.org/1999/02/22-rdf-syntax-ns#"
   xmlns:svg="http://www.w3.org/2000/svg"
   xmlns="http://www.w3.org/2000/svg"
   xmlns:sodipodi="http://sodipodi.sourceforge.net/DTD/sodipodi-0.dtd"
   xmlns:inkscape="http://www.inkscape.org/namespaces/inkscape"
   width="1280"
   height="720"
   viewBox="0 0 1280 720"
   id="svg2"
   version="1.1"
   inkscape:version="0.91 r13725"
   sodipodi:docname="maxwell.svg"
   inkscape:export-filename="/home/patrick/TCC/TCC-git/documentos/apres_pre_projeto_2018-04-13/imagens/maxwell.png"
   inkscape:export-xdpi="300"
   inkscape:export-ydpi="300">
  <sodipodi:namedview
     id="base"
     pagecolor="#ffffff"
     bordercolor="#666666"
     borderopacity="1.0"
     inkscape:pageopacity="0.0"
     inkscape:pageshadow="2"
     inkscape:zoom="0.7"
     inkscape:cx="485.15776"
     inkscape:cy="380.67376"
     inkscape:document-units="px"
     inkscape:current-layer="layer1"
     showgrid="false"
     inkscape:window-width="1325"
     inkscape:window-height="744"
     inkscape:window-x="41"
     inkscape:window-y="24"
     inkscape:window-maximized="1"
     units="px" />
  <defs
     id="defs4">
    <clipPath
       clipPathUnits="userSpaceOnUse"
       id="clipPath5495">
      <rect
         style="fill:#000b39;fill-opacity:1;fill-rule:evenodd;stroke:none"
         id="rect5497"
         width="500"
         height="634.28571"
         x="2017.1428"
         y="318.07648" />
    </clipPath>
  </defs>
  <metadata
     id="metadata7">
    <rdf:RDF>
      <cc:Work
         rdf:about="">
        <dc:format>image/svg+xml</dc:format>
        <dc:type
           rdf:resource="http://purl.org/dc/dcmitype/StillImage" />
        <dc:title></dc:title>
      </cc:Work>
    </rdf:RDF>
  </metadata>
  <g
     inkscape:label="Camada 1"
     inkscape:groupmode="layer"
     id="layer1"
     transform="translate(0,-332.36218)">
    <g
       transform="translate(189.53716,-94.285691)"
       id="g5608">
      <g
         style="font-style:normal;font-variant:normal;font-weight:normal;font-stretch:normal;letter-spacing:normal;word-spacing:normal;text-anchor:start;fill:none;fill-opacity:1;fill-rule:evenodd;stroke:#000000;stroke-linecap:butt;stroke-linejoin:miter;stroke-miterlimit:10.43299961;stroke-dasharray:none;stroke-dashoffset:0;stroke-opacity:1"
         id="g5610"
         transform="matrix(1.0285714,0,0,-1.0285714,-180,960)"
         xml:space="preserve"
         stroke-miterlimit="10.433"
         font-style="normal"
         font-variant="normal"
         font-weight="normal"
         font-stretch="normal"
         font-size-adjust="none"
         letter-spacing="normal"
         word-spacing="normal"><path
           style="fill:#000000;stroke-width:0"
           inkscape:connector-curvature="0"
           d="m 494.86,406.93 0,0.01 0.01,0.02 0.01,0.01 0.01,0.02 0.01,0.02 0.01,0.02 0.01,0.02 0.01,0.02 0.02,0.02 0.01,0.02 0.02,0.05 0.02,0.05 0.02,0.05 0.01,0.05 0.02,0.05 0.01,0.02 0,0.02 0.01,0.03 0.01,0.02 0,0.03 0.01,0.02 0,0.02 0.01,0.02 0,0.03 0,0.02 0,0.02 0,0.01 c 0,0.35 -0.05,0.4 -1.19,0.4 l -34.37,0 c -1.15,0 -1.2,-0.05 -1.2,-0.4 0,-0.19 0.15,-0.55 0.25,-0.69 l 16.79,-33.63 c 0.35,-0.64 0.5,-0.94 1.34,-0.94 0.85,0 1,0.3 1.35,0.94 l 0.14,3.74 -13.69,27.4 27.35,0 -13.66,-27.4 -0.14,-3.74 z"
           id="path5612" /><path
           style="fill:#000000;stroke-width:0"
           inkscape:connector-curvature="0"
           d="m 527.38,387.85 -9.97,9.91 c -0.59,0.6 -0.69,0.7 -1.09,0.7 -0.5,0 -1,-0.45 -1,-1 0,-0.35 0.1,-0.45 0.65,-1 l 9.96,-10.01 -9.96,-10.01 c -0.55,-0.55 -0.65,-0.65 -0.65,-0.99 0,-0.55 0.5,-1 1,-1 0.4,0 0.5,0.1 1.09,0.69 l 9.92,9.92 10.31,-10.31 c 0.1,-0.05 0.45,-0.3 0.75,-0.3 0.59,0 0.99,0.45 0.99,1 0,0.09 0,0.29 -0.15,0.54 -0.05,0.1 -7.97,7.92 -10.46,10.46 l 9.12,9.12 c 0.25,0.3 0.99,0.95 1.24,1.24 0.05,0.1 0.25,0.3 0.25,0.65 0,0.55 -0.4,1 -0.99,1 -0.4,0 -0.6,-0.2 -1.15,-0.75 z"
           id="path5614" /><path
           style="fill:#000000;stroke-width:0"
           inkscape:connector-curvature="0"
           d="m 585.75,416.64 -0.07,-0.06 -0.07,-0.07 -0.08,-0.07 -0.08,-0.07 -0.09,-0.08 -0.09,-0.08 -0.09,-0.09 -0.09,-0.09 -0.1,-0.09 -0.09,-0.09 -0.2,-0.19 -0.19,-0.19 -0.19,-0.21 -0.09,-0.1 -0.09,-0.1 -0.09,-0.1 -0.08,-0.11 -0.08,-0.1 -0.08,-0.1 -0.07,-0.1 -0.06,-0.1 -0.06,-0.1 -0.05,-0.1 -0.05,-0.1 -0.04,-0.09 -0.03,-0.1 -0.02,-0.09 -0.02,-0.09 0,-0.08 c 0,-0.5 0.5,-1 1,-1 0.44,0 0.69,0.35 0.94,0.65 0.6,0.75 1.74,2.14 3.93,3.24 0.36,0.2 0.85,0.45 0.85,1.05 0,0.49 -0.35,0.74 -0.69,0.99 -1.1,0.75 -1.65,1.64 -2.04,2.84 -0.11,0.45 -0.31,1.1 -1,1.1 -0.7,0 -1,-0.65 -1,-1.05 0,-0.25 0.4,-1.84 1.2,-2.89 l -16.79,0 c -0.85,0 -1.74,0 -1.74,-0.99 0,-1 0.89,-1 1.74,-1 z"
           id="path5616" /><path
           style="fill:#000000;stroke-width:0"
           inkscape:connector-curvature="0"
           d="m 564.77,377.89 0,-0.17 0,-0.15 0,-0.16 -0.01,-0.14 -0.01,-0.14 -0.01,-0.13 -0.02,-0.12 -0.02,-0.12 -0.03,-0.11 -0.04,-0.1 -0.04,-0.1 -0.05,-0.09 -0.06,-0.09 -0.07,-0.08 -0.08,-0.08 -0.08,-0.07 -0.11,-0.06 -0.11,-0.06 -0.06,-0.03 -0.06,-0.03 -0.07,-0.02 -0.07,-0.03 -0.07,-0.02 -0.08,-0.02 -0.08,-0.02 -0.09,-0.02 -0.09,-0.02 -0.09,-0.02 -0.1,-0.02 -0.1,-0.01 -0.1,-0.02 -0.11,-0.01 -0.11,-0.01 -0.12,-0.01 -0.12,-0.01 -0.13,-0.01 -0.13,-0.01 -0.14,-0.01 -0.14,-0.01 -0.15,0 -0.15,-0.01 -0.15,0 -0.16,0 -0.17,-0.01 -0.17,0 -0.18,0 -1.19,0 0,-1.54 28.74,0 2.09,12.85 -1.25,0 c -1.24,-7.67 -2.39,-11.31 -10.96,-11.31 l -6.62,0 c -2.34,0 -2.44,0.35 -2.44,2 l 0,13.3 4.48,0 c 4.83,0 5.38,-1.6 5.38,-5.83 l 1.25,0 0,13.2 -1.25,0 c 0,-4.28 -0.55,-5.83 -5.38,-5.83 l -4.48,0 0,11.96 c 0,1.64 0.1,1.99 2.44,1.99 l 6.42,0 c 7.63,0 8.97,-2.74 9.77,-9.67 l 1.24,0 -1.39,11.21 -28.04,0 0,-1.54 1.19,0 c 3.84,0 3.93,-0.55 3.93,-2.34 z"
           id="path5618" /><path
           style="fill:#000000;stroke-width:0"
           inkscape:connector-curvature="0"
           d="m 640.22,390.29 0.14,0 0.15,0 0.15,0.01 0.07,0 0.07,0 0.07,0.01 0.08,0.01 0.07,0.01 0.07,0.01 0.06,0.02 0.07,0.01 0.07,0.02 0.06,0.02 0.06,0.03 0.06,0.03 0.05,0.03 0.06,0.03 0.05,0.04 0.04,0.04 0.05,0.05 0.03,0.05 0.02,0.03 0.02,0.02 0.02,0.03 0.01,0.03 0.02,0.03 0.01,0.04 0.01,0.03 0.01,0.04 0.01,0.03 0.01,0.04 0.01,0.04 0,0.04 0.01,0.04 0,0.04 0,0.05 0,0.05 c 0,0.99 -0.94,0.99 -1.64,0.99 l -29.84,0 c -0.7,0 -1.64,0 -1.64,-0.99 0,-1 0.94,-1 1.69,-1 z"
           id="path5620" /><path
           style="fill:#000000;stroke-width:0"
           inkscape:connector-curvature="0"
           d="m 640.27,380.62 0.13,0.01 0.14,0 0.14,0 0.07,0.01 0.07,0 0.07,0.01 0.07,0.01 0.07,0.01 0.07,0.01 0.06,0.01 0.07,0.02 0.06,0.02 0.06,0.02 0.06,0.02 0.06,0.03 0.06,0.03 0.05,0.04 0.05,0.04 0.04,0.04 0.05,0.04 0.02,0.03 0.02,0.03 0.01,0.02 0.02,0.03 0.02,0.03 0.01,0.03 0.02,0.03 0.01,0.03 0.01,0.04 0.01,0.03 0.01,0.04 0.01,0.04 0.01,0.04 0,0.04 0.01,0.04 0,0.04 0,0.05 0,0.04 c 0,1 -0.94,1 -1.69,1 l -29.74,0 c -0.75,0 -1.69,0 -1.69,-1 0,-1 0.94,-1 1.64,-1 z"
           id="path5622" /><path
           style="fill:#000000;stroke-width:0"
           inkscape:connector-curvature="0"
           d="m 690.83,385.46 0.16,0 0.16,0 0.15,0 0.08,0.01 0.08,0 0.07,0.01 0.08,0.01 0.07,0.01 0.07,0.01 0.07,0.01 0.07,0.02 0.06,0.02 0.07,0.02 0.06,0.03 0.05,0.02 0.06,0.04 0.05,0.03 0.05,0.04 0.05,0.04 0.04,0.05 0.04,0.05 0.01,0.02 0.02,0.03 0.02,0.03 0.01,0.03 0.02,0.03 0.01,0.04 0.01,0.03 0.01,0.03 0.01,0.04 0.01,0.04 0,0.04 0.01,0.04 0,0.04 0.01,0.04 0,0.05 0,0.04 c 0,1 -0.9,1 -1.74,1 l -26.95,0 c -0.85,0 -1.75,0 -1.75,-1 0,-0.99 0.9,-0.99 1.75,-0.99 z"
           id="path5624" /><path
           style="fill:#000000;stroke-width:0"
           inkscape:connector-curvature="0"
           d="m 726.06,424.89 -0.05,0.29 -0.06,0.28 -0.07,0.29 -0.08,0.28 -0.08,0.27 -0.1,0.28 -0.11,0.27 -0.11,0.26 -0.13,0.26 -0.13,0.25 -0.15,0.25 -0.15,0.24 -0.17,0.23 -0.17,0.22 -0.19,0.22 -0.19,0.21 -0.2,0.19 -0.22,0.19 -0.22,0.18 -0.23,0.17 -0.25,0.16 -0.25,0.14 -0.26,0.14 -0.28,0.12 -0.28,0.11 -0.3,0.1 -0.31,0.08 -0.31,0.07 -0.33,0.05 -0.34,0.04 -0.34,0.03 -0.36,0.01 0,-1.1 c 5.43,0 5.53,-5.58 5.53,-6.58 0,-3.58 -3.19,-14.79 -10.86,-14.79 l 0,0 c -5.48,0 -5.48,5.13 -5.48,5.63 0,1.34 1.24,8.32 3.29,11.3 1.99,2.84 4.43,4.44 7.52,4.44 l 0,1.1 c -3.04,0 -6.28,-0.8 -10.16,-4.69 -4.14,-4.13 -4.49,-8.76 -4.49,-10.31 0,-3.09 2.19,-8.87 9.17,-8.87 11.86,0 17.04,16.74 17.04,23.87 0,7.91 -4.64,12.9 -10.77,12.9 -7.22,0 -9.51,-6.48 -9.51,-7.87 0,-0.7 0.4,-1.75 1.89,-1.75 1.65,0 2.69,1.5 2.69,2.64 0,1.75 -1.54,1.75 -2.34,1.75 2.19,3.68 5.73,3.98 7.18,3.98 3.63,0 7.12,-2.59 7.12,-9.01 0,-1.95 -0.3,-4.49 -1.35,-8.52 z"
           id="path5626" /><path
           style="fill:#000000;stroke-width:0"
           inkscape:connector-curvature="0"
           d="m 760.75,449.64 -0.07,-0.06 -0.07,-0.07 -0.08,-0.07 -0.08,-0.07 -0.09,-0.08 -0.09,-0.08 -0.09,-0.09 -0.09,-0.09 -0.1,-0.09 -0.09,-0.09 -0.2,-0.19 -0.19,-0.19 -0.19,-0.21 -0.09,-0.1 -0.09,-0.1 -0.09,-0.1 -0.08,-0.11 -0.08,-0.1 -0.08,-0.1 -0.07,-0.1 -0.06,-0.1 -0.06,-0.1 -0.05,-0.1 -0.05,-0.1 -0.04,-0.09 -0.03,-0.1 -0.02,-0.09 -0.02,-0.09 0,-0.08 c 0,-0.5 0.5,-1 1,-1 0.44,0 0.69,0.35 0.94,0.65 0.6,0.75 1.74,2.14 3.93,3.24 0.36,0.2 0.85,0.45 0.85,1.05 0,0.49 -0.35,0.74 -0.69,0.99 -1.1,0.75 -1.65,1.64 -2.04,2.84 -0.11,0.45 -0.31,1.1 -1,1.1 -0.7,0 -1,-0.65 -1,-1.05 0,-0.25 0.4,-1.84 1.2,-2.89 l -16.79,0 c -0.85,0 -1.74,0 -1.74,-0.99 0,-1 0.89,-1 1.74,-1 z"
           id="path5628" /><path
           style="fill:#000000;stroke-width:0"
           inkscape:connector-curvature="0"
           d="m 754.81,425.79 0.45,0.09 0.44,0.11 0.43,0.12 0.43,0.13 0.41,0.15 0.4,0.15 0.39,0.17 0.38,0.18 0.37,0.19 0.36,0.19 0.35,0.21 0.33,0.22 0.32,0.23 0.31,0.24 0.3,0.24 0.28,0.26 0.27,0.26 0.25,0.27 0.24,0.28 0.22,0.28 0.21,0.29 0.19,0.3 0.17,0.3 0.16,0.31 0.14,0.32 0.12,0.32 0.11,0.32 0.08,0.33 0.07,0.33 0.05,0.34 0.03,0.34 0.01,0.35 c 0,4.33 -4.58,8.41 -11.06,8.41 l -0.34,-1.54 c 4.83,0 6.57,-4.24 6.57,-6.87 0,-3.2 -2.44,-7.38 -7.97,-7.38 l -7.22,0 0,-1.09 9.36,0 c 4.93,0 7.03,-4.64 7.03,-7.98 0,-3.53 -2.6,-7.62 -7.72,-7.62 l 0,0 -6.23,0 c -2.34,0 -2.44,0.35 -2.44,2 l 0,13.6 0,1.09 0,12.25 c 0,1.65 0.1,2 2.44,2 l 6.18,0 0.34,1.54 -18.23,0 0,-1.54 1.2,0 c 3.83,0 3.94,-0.55 3.94,-2.34 l 0,-26.25 c 0,-1.8 -0.11,-2.35 -3.94,-2.35 l -1.2,0 0,-1.54 19.53,0 c 6.63,0 11.11,4.43 11.11,9.12 0,4.33 -4.09,8.06 -9.62,8.67 z"
           id="path5630" /><polyline
           style="fill:#000000;fill-rule:nonzero;stroke-width:0"
           points="703,386 767.56,386 767.56,388.04 703,388.04 "
           id="polyline5632" /><path
           style="fill:#000000;stroke-width:0"
           inkscape:connector-curvature="0"
           d="m 735.06,356.89 -0.05,0.29 -0.06,0.28 -0.07,0.29 -0.08,0.28 -0.08,0.27 -0.1,0.28 -0.11,0.27 -0.11,0.26 -0.13,0.26 -0.13,0.25 -0.15,0.25 -0.15,0.24 -0.17,0.23 -0.17,0.22 -0.19,0.22 -0.19,0.21 -0.2,0.19 -0.22,0.19 -0.22,0.18 -0.23,0.17 -0.25,0.16 -0.25,0.14 -0.26,0.14 -0.28,0.12 -0.28,0.11 -0.3,0.1 -0.31,0.08 -0.31,0.07 -0.33,0.05 -0.34,0.04 -0.34,0.03 -0.36,0.01 0,-1.1 c 5.43,0 5.53,-5.58 5.53,-6.58 0,-3.58 -3.19,-14.79 -10.86,-14.79 l 0,0 c -5.48,0 -5.48,5.13 -5.48,5.63 0,1.34 1.24,8.32 3.29,11.3 1.99,2.84 4.43,4.44 7.52,4.44 l 0,1.1 c -3.04,0 -6.28,-0.8 -10.16,-4.69 -4.14,-4.13 -4.49,-8.76 -4.49,-10.31 0,-3.09 2.19,-8.87 9.17,-8.87 11.86,0 17.04,16.74 17.04,23.87 0,7.91 -4.64,12.9 -10.77,12.9 -7.22,0 -9.51,-6.48 -9.51,-7.87 0,-0.7 0.4,-1.75 1.89,-1.75 1.65,0 2.69,1.5 2.69,2.64 0,1.75 -1.54,1.75 -2.34,1.75 2.19,3.68 5.73,3.98 7.18,3.98 3.63,0 7.12,-2.59 7.12,-9.01 0,-1.95 -0.3,-4.49 -1.35,-8.52 z"
           id="path5634" /><path
           style="fill:#000000;stroke-width:0"
           inkscape:connector-curvature="0"
           d="m 751.26,359.93 4.69,0 c 0.99,0 1.49,0 1.49,0.99 0,0.55 -0.5,0.55 -1.4,0.55 l -4.38,0 c 1.79,7.07 2.04,8.07 2.04,8.37 0,0.84 -0.6,1.34 -1.44,1.34 -0.15,0 -1.54,-0.05 -1.99,-1.79 l -1.95,-7.92 -4.68,0 c -0.99,0 -1.49,0 -1.49,-0.95 0,-0.59 0.39,-0.59 1.39,-0.59 l 4.39,0 c -3.59,-14.15 -3.79,-15 -3.79,-15.89 0,-2.7 1.89,-4.59 4.58,-4.59 5.08,0 7.92,7.28 7.92,7.67 0,0.5 -0.4,0.5 -0.6,0.5 -0.45,0 -0.49,-0.15 -0.74,-0.69 -2.14,-5.19 -4.78,-6.38 -6.48,-6.38 -1.05,0 -1.54,0.65 -1.54,2.29 0,1.2 0.1,1.54 0.29,2.39 z"
           id="path5636" /></g>    </g>
    <g
       id="g5695"
       transform="translate(161.88916,64.081527)">
      <g
         word-spacing="normal"
         letter-spacing="normal"
         font-size-adjust="none"
         font-stretch="normal"
         font-weight="normal"
         font-variant="normal"
         font-style="normal"
         stroke-miterlimit="10.433"
         xml:space="preserve"
         transform="matrix(1.0285714,0,0,-1.0285714,-180,960)"
         id="content"
         style="font-style:normal;font-variant:normal;font-weight:normal;font-stretch:normal;letter-spacing:normal;word-spacing:normal;text-anchor:start;fill:none;fill-opacity:1;fill-rule:evenodd;stroke:#000000;stroke-linecap:butt;stroke-linejoin:miter;stroke-miterlimit:10.43299961;stroke-dasharray:none;stroke-dashoffset:0;stroke-opacity:1"><path
           id="path5698"
           d="m 494.86,406.93 0,0.01 0.01,0.02 0.01,0.01 0.01,0.02 0.01,0.02 0.01,0.02 0.01,0.02 0.01,0.02 0.02,0.02 0.01,0.02 0.02,0.05 0.02,0.05 0.02,0.05 0.01,0.05 0.02,0.05 0.01,0.02 0,0.02 0.01,0.03 0.01,0.02 0,0.03 0.01,0.02 0,0.02 0.01,0.02 0,0.03 0,0.02 0,0.02 0,0.01 c 0,0.35 -0.05,0.4 -1.19,0.4 l -34.37,0 c -1.15,0 -1.2,-0.05 -1.2,-0.4 0,-0.19 0.15,-0.55 0.25,-0.69 l 16.79,-33.63 c 0.35,-0.64 0.5,-0.94 1.34,-0.94 0.85,0 1,0.3 1.35,0.94 l 0.14,3.74 -13.69,27.4 27.35,0 -13.66,-27.4 -0.14,-3.74 z"
           inkscape:connector-curvature="0"
           style="fill:#000000;stroke-width:0" /><path
           id="path5700"
           d="m 527.38,387.85 -9.97,9.91 c -0.59,0.6 -0.69,0.7 -1.09,0.7 -0.5,0 -1,-0.45 -1,-1 0,-0.35 0.1,-0.45 0.65,-1 l 9.96,-10.01 -9.96,-10.01 c -0.55,-0.55 -0.65,-0.65 -0.65,-0.99 0,-0.55 0.5,-1 1,-1 0.4,0 0.5,0.1 1.09,0.69 l 9.92,9.92 10.31,-10.31 c 0.1,-0.05 0.45,-0.3 0.75,-0.3 0.59,0 0.99,0.45 0.99,1 0,0.09 0,0.29 -0.15,0.54 -0.05,0.1 -7.97,7.92 -10.46,10.46 l 9.12,9.12 c 0.25,0.3 0.99,0.95 1.24,1.24 0.05,0.1 0.25,0.3 0.25,0.65 0,0.55 -0.4,1 -0.99,1 -0.4,0 -0.6,-0.2 -1.15,-0.75 z"
           inkscape:connector-curvature="0"
           style="fill:#000000;stroke-width:0" /><path
           id="path5702"
           d="m 586.75,416.64 -0.07,-0.06 -0.07,-0.07 -0.08,-0.07 -0.08,-0.07 -0.09,-0.08 -0.09,-0.08 -0.09,-0.09 -0.09,-0.09 -0.1,-0.09 -0.09,-0.09 -0.2,-0.19 -0.19,-0.19 -0.19,-0.21 -0.09,-0.1 -0.09,-0.1 -0.09,-0.1 -0.08,-0.11 -0.08,-0.1 -0.08,-0.1 -0.07,-0.1 -0.06,-0.1 -0.06,-0.1 -0.05,-0.1 -0.05,-0.1 -0.04,-0.09 -0.03,-0.1 -0.02,-0.09 -0.02,-0.09 0,-0.08 c 0,-0.5 0.5,-1 1,-1 0.44,0 0.69,0.35 0.94,0.65 0.6,0.75 1.74,2.14 3.93,3.24 0.36,0.2 0.85,0.45 0.85,1.05 0,0.49 -0.35,0.74 -0.69,0.99 -1.1,0.75 -1.65,1.64 -2.04,2.84 -0.11,0.45 -0.31,1.1 -1,1.1 -0.7,0 -1,-0.65 -1,-1.05 0,-0.25 0.4,-1.84 1.2,-2.89 l -16.79,0 c -0.85,0 -1.74,0 -1.74,-0.99 0,-1 0.89,-1 1.74,-1 z"
           inkscape:connector-curvature="0"
           style="fill:#000000;stroke-width:0" /><path
           id="path5704"
           d="m 588.53,404.14 0.01,0.16 0,0.16 0,0.15 0.01,0.14 0.01,0.14 0.01,0.13 0.02,0.12 0.02,0.12 0.03,0.11 0.04,0.1 0.04,0.1 0.05,0.1 0.06,0.08 0.07,0.08 0.08,0.08 0.08,0.07 0.11,0.06 0.11,0.06 0.06,0.03 0.06,0.03 0.07,0.02 0.07,0.03 0.07,0.02 0.08,0.02 0.08,0.03 0.09,0.02 0.09,0.01 0.09,0.02 0.1,0.02 0.1,0.01 0.1,0.02 0.11,0.01 0.12,0.01 0.11,0.01 0.13,0.01 0.12,0.01 0.13,0.01 0.14,0.01 0.14,0.01 0.15,0 0.15,0.01 0.15,0 0.16,0 0.17,0.01 0.17,0 0.18,0 1.2,0 0,1.54 -14.7,0 0,-1.54 1.2,0 c 3.83,0 3.93,-0.55 3.93,-2.34 l 0,-11.66 -14.89,0 0,11.66 c 0,1.79 0.1,2.34 3.94,2.34 l 1.19,0 0,1.54 -14.69,0 0,-1.54 1.19,0 c 3.84,0 3.93,-0.55 3.93,-2.34 l 0,-26.25 c 0,-1.8 -0.09,-2.35 -3.93,-2.35 l -1.19,0 0,-1.54 14.69,0 0,1.54 -1.19,0 c -3.84,0 -3.94,0.55 -3.94,2.35 l 0,13.05 14.89,0 0,-13.05 c 0,-1.8 -0.1,-2.35 -3.93,-2.35 l -1.2,0 0,-1.54 14.7,0 0,1.54 -1.2,0 c -3.83,0 -3.94,0.55 -3.94,2.35 z"
           inkscape:connector-curvature="0"
           style="fill:#000000;stroke-width:0" /><path
           id="path5706"
           d="m 643.22,390.29 0.14,0 0.15,0 0.15,0.01 0.07,0 0.07,0 0.07,0.01 0.08,0.01 0.07,0.01 0.07,0.01 0.06,0.02 0.07,0.01 0.07,0.02 0.06,0.02 0.06,0.03 0.06,0.03 0.05,0.03 0.06,0.03 0.05,0.04 0.04,0.04 0.05,0.05 0.03,0.05 0.02,0.03 0.02,0.02 0.02,0.03 0.01,0.03 0.02,0.03 0.01,0.04 0.01,0.03 0.01,0.04 0.01,0.03 0.01,0.04 0.01,0.04 0,0.04 0.01,0.04 0,0.04 0,0.05 0,0.05 c 0,0.99 -0.94,0.99 -1.64,0.99 l -29.84,0 c -0.7,0 -1.64,0 -1.64,-0.99 0,-1 0.94,-1 1.69,-1 z"
           inkscape:connector-curvature="0"
           style="fill:#000000;stroke-width:0" /><path
           id="path5708"
           d="m 643.27,380.62 0.13,0.01 0.14,0 0.14,0 0.07,0.01 0.07,0 0.07,0.01 0.07,0.01 0.07,0.01 0.07,0.01 0.06,0.01 0.07,0.02 0.06,0.02 0.06,0.02 0.06,0.02 0.06,0.03 0.06,0.03 0.05,0.04 0.05,0.04 0.04,0.04 0.05,0.04 0.02,0.03 0.02,0.03 0.01,0.02 0.02,0.03 0.02,0.03 0.01,0.03 0.02,0.03 0.01,0.03 0.01,0.04 0.01,0.03 0.01,0.04 0.01,0.04 0.01,0.04 0,0.04 0.01,0.04 0,0.04 0,0.05 0,0.04 c 0,1 -0.94,1 -1.69,1 l -29.74,0 c -0.75,0 -1.69,0 -1.69,-1 0,-1 0.94,-1 1.64,-1 z"
           inkscape:connector-curvature="0"
           style="fill:#000000;stroke-width:0" /><path
           id="path5710"
           d="m 684.75,416.64 -0.07,-0.06 -0.07,-0.07 -0.08,-0.07 -0.08,-0.07 -0.09,-0.08 -0.09,-0.08 -0.09,-0.09 -0.09,-0.09 -0.1,-0.09 -0.09,-0.09 -0.2,-0.19 -0.19,-0.19 -0.19,-0.21 -0.09,-0.1 -0.09,-0.1 -0.09,-0.1 -0.08,-0.11 -0.08,-0.1 -0.08,-0.1 -0.07,-0.1 -0.06,-0.1 -0.06,-0.1 -0.05,-0.1 -0.05,-0.1 -0.04,-0.09 -0.03,-0.1 -0.02,-0.09 -0.02,-0.09 0,-0.08 c 0,-0.5 0.5,-1 1,-1 0.44,0 0.69,0.35 0.94,0.65 0.6,0.75 1.74,2.14 3.93,3.24 0.36,0.2 0.85,0.45 0.85,1.05 0,0.49 -0.35,0.74 -0.69,0.99 -1.1,0.75 -1.65,1.64 -2.04,2.84 -0.11,0.45 -0.31,1.1 -1,1.1 -0.7,0 -1,-0.65 -1,-1.05 0,-0.25 0.4,-1.84 1.2,-2.89 l -16.79,0 c -0.85,0 -1.74,0 -1.74,-0.99 0,-1 0.89,-1 1.74,-1 z"
           inkscape:connector-curvature="0"
           style="fill:#000000;stroke-width:0" /><path
           id="path5712"
           d="m 677.04,381.37 0,-0.42 -0.03,-0.42 -0.03,-0.4 -0.05,-0.39 -0.06,-0.38 -0.07,-0.37 -0.09,-0.36 -0.1,-0.34 -0.11,-0.34 -0.11,-0.32 -0.13,-0.31 -0.14,-0.29 -0.15,-0.29 -0.16,-0.27 -0.17,-0.26 -0.17,-0.24 -0.18,-0.23 -0.19,-0.22 -0.2,-0.21 -0.2,-0.19 -0.21,-0.17 -0.22,-0.16 -0.22,-0.15 -0.22,-0.13 -0.23,-0.12 -0.23,-0.1 -0.24,-0.09 -0.24,-0.07 -0.24,-0.06 -0.24,-0.04 -0.25,-0.02 -0.25,-0.01 c -0.3,0 -3.68,0 -5.48,2.89 2.59,0 3.19,1.49 3.19,2.79 0,1.79 -1.39,2.79 -2.79,2.79 -1.1,0 -2.79,-0.7 -2.79,-2.89 0,-3.69 3.54,-6.68 7.97,-6.68 5.08,0 8.72,3.49 9.27,7.23 0.05,0.4 0.05,0.49 0.05,2.19 l 0,22.12 c 0,2.04 0.69,2.04 3.83,2.04 l 0,1.54 -14.79,0 0,-1.54 1.79,0 c 4.88,0 4.88,-0.65 4.88,-2.39 z"
           inkscape:connector-curvature="0"
           style="fill:#000000;stroke-width:0" /><path
           id="path5714"
           d="m 718.38,385.46 13.89,0 c 0.7,0 1.64,0 1.64,0.99 0,1 -0.94,1 -1.64,1 l -13.89,0 0,13.95 c 0,0.69 0,1.64 -1,1.64 -1,0 -1,-0.95 -1,-1.64 l 0,-13.95 -13.95,0 c -0.7,0 -1.64,0 -1.64,-1 0,-0.99 0.94,-0.99 1.64,-0.99 l 13.95,0 0,-13.95 c 0,-0.7 0,-1.64 1,-1.64 1,0 1,0.94 1,1.64 z"
           inkscape:connector-curvature="0"
           style="fill:#000000;stroke-width:0" /><path
           id="path5716"
           d="m 777.06,424.89 -0.05,0.29 -0.06,0.28 -0.07,0.29 -0.08,0.28 -0.08,0.27 -0.1,0.28 -0.11,0.27 -0.11,0.26 -0.13,0.26 -0.13,0.25 -0.15,0.25 -0.15,0.24 -0.17,0.23 -0.17,0.22 -0.19,0.22 -0.19,0.21 -0.2,0.19 -0.22,0.19 -0.22,0.18 -0.23,0.17 -0.25,0.16 -0.25,0.14 -0.26,0.14 -0.28,0.12 -0.28,0.11 -0.3,0.1 -0.31,0.08 -0.31,0.07 -0.33,0.05 -0.34,0.04 -0.34,0.03 -0.36,0.01 0,-1.1 c 5.43,0 5.53,-5.58 5.53,-6.58 0,-3.58 -3.19,-14.79 -10.86,-14.79 l 0,0 c -5.48,0 -5.48,5.13 -5.48,5.63 0,1.34 1.24,8.32 3.29,11.3 1.99,2.84 4.43,4.44 7.52,4.44 l 0,1.1 c -3.04,0 -6.28,-0.8 -10.16,-4.69 -4.14,-4.13 -4.49,-8.76 -4.49,-10.31 0,-3.09 2.19,-8.87 9.17,-8.87 11.86,0 17.04,16.74 17.04,23.87 0,7.91 -4.64,12.9 -10.77,12.9 -7.22,0 -9.51,-6.48 -9.51,-7.87 0,-0.7 0.4,-1.75 1.89,-1.75 1.65,0 2.69,1.5 2.69,2.64 0,1.75 -1.54,1.75 -2.34,1.75 2.19,3.68 5.73,3.98 7.18,3.98 3.63,0 7.12,-2.59 7.12,-9.01 0,-1.95 -0.3,-4.49 -1.35,-8.52 z"
           inkscape:connector-curvature="0"
           style="fill:#000000;stroke-width:0" /><path
           id="path5718"
           d="m 812.75,449.64 -0.07,-0.06 -0.07,-0.07 -0.08,-0.07 -0.08,-0.07 -0.09,-0.08 -0.09,-0.08 -0.09,-0.09 -0.09,-0.09 -0.1,-0.09 -0.09,-0.09 -0.2,-0.19 -0.19,-0.19 -0.19,-0.21 -0.09,-0.1 -0.09,-0.1 -0.09,-0.1 -0.08,-0.11 -0.08,-0.1 -0.08,-0.1 -0.07,-0.1 -0.06,-0.1 -0.06,-0.1 -0.05,-0.1 -0.05,-0.1 -0.04,-0.09 -0.03,-0.1 -0.02,-0.09 -0.02,-0.09 0,-0.08 c 0,-0.5 0.5,-1 1,-1 0.44,0 0.69,0.35 0.94,0.65 0.6,0.75 1.74,2.14 3.93,3.24 0.36,0.2 0.85,0.45 0.85,1.05 0,0.49 -0.35,0.74 -0.69,0.99 -1.1,0.75 -1.65,1.64 -2.04,2.84 -0.11,0.45 -0.31,1.1 -1,1.1 -0.7,0 -1,-0.65 -1,-1.05 0,-0.25 0.4,-1.84 1.2,-2.89 l -16.79,0 c -0.85,0 -1.74,0 -1.74,-0.99 0,-1 0.89,-1 1.74,-1 z"
           inkscape:connector-curvature="0"
           style="fill:#000000;stroke-width:0" /><path
           id="path5720"
           d="m 784.74,442.02 0,-1.54 1.2,0 c 3.83,0 3.94,-0.55 3.94,-2.34 l 0,-26.25 c 0,-1.8 -0.11,-2.35 -3.94,-2.35 l -1.2,0 0,-1.54 18.24,0 -1.35,1.54 -5.03,0 c -2.34,0 -2.44,0.35 -2.44,2 l 0,26.94 c 0,1.65 0.1,2 2.44,2 l 4.98,0 c 3.09,0 6.52,-1.1 9.07,-4.64 2.14,-2.93 2.59,-7.22 2.59,-11.1 0,-5.53 -0.95,-8.52 -2.74,-10.96 -1,-1.35 -3.84,-4.24 -8.87,-4.24 l 1.35,-1.54 c 8.36,0 15.24,7.37 15.24,16.74 0,9.46 -6.73,17.28 -15.24,17.28 z"
           inkscape:connector-curvature="0"
           style="fill:#000000;stroke-width:0" /><polyline
           id="polyline5722"
           points="754,386 821.32,386 821.32,388.04 754,388.04 "
           style="fill:#000000;fill-rule:nonzero;stroke-width:0" /><path
           id="path5724"
           d="m 787.06,356.89 -0.05,0.29 -0.06,0.28 -0.07,0.29 -0.08,0.28 -0.08,0.27 -0.1,0.28 -0.11,0.27 -0.11,0.26 -0.13,0.26 -0.13,0.25 -0.15,0.25 -0.15,0.24 -0.17,0.23 -0.17,0.22 -0.19,0.22 -0.19,0.21 -0.2,0.19 -0.22,0.19 -0.22,0.18 -0.23,0.17 -0.25,0.16 -0.25,0.14 -0.26,0.14 -0.28,0.12 -0.28,0.11 -0.3,0.1 -0.31,0.08 -0.31,0.07 -0.33,0.05 -0.34,0.04 -0.34,0.03 -0.36,0.01 0,-1.1 c 5.43,0 5.53,-5.58 5.53,-6.58 0,-3.58 -3.19,-14.79 -10.86,-14.79 l 0,0 c -5.48,0 -5.48,5.13 -5.48,5.63 0,1.34 1.24,8.32 3.29,11.3 1.99,2.84 4.43,4.44 7.52,4.44 l 0,1.1 c -3.04,0 -6.28,-0.8 -10.16,-4.69 -4.14,-4.13 -4.49,-8.76 -4.49,-10.31 0,-3.09 2.19,-8.87 9.17,-8.87 11.86,0 17.04,16.74 17.04,23.87 0,7.91 -4.64,12.9 -10.77,12.9 -7.22,0 -9.51,-6.48 -9.51,-7.87 0,-0.7 0.4,-1.75 1.89,-1.75 1.65,0 2.69,1.5 2.69,2.64 0,1.75 -1.54,1.75 -2.34,1.75 2.19,3.68 5.73,3.98 7.18,3.98 3.63,0 7.12,-2.59 7.12,-9.01 0,-1.95 -0.3,-4.49 -1.35,-8.52 z"
           inkscape:connector-curvature="0"
           style="fill:#000000;stroke-width:0" /><path
           id="path5726"
           d="m 803.26,359.93 4.69,0 c 0.99,0 1.49,0 1.49,0.99 0,0.55 -0.5,0.55 -1.4,0.55 l -4.38,0 c 1.79,7.07 2.04,8.07 2.04,8.37 0,0.84 -0.6,1.34 -1.44,1.34 -0.15,0 -1.54,-0.05 -1.99,-1.79 l -1.95,-7.92 -4.68,0 c -0.99,0 -1.49,0 -1.49,-0.95 0,-0.59 0.39,-0.59 1.39,-0.59 l 4.39,0 c -3.59,-14.15 -3.79,-15 -3.79,-15.89 0,-2.7 1.89,-4.59 4.58,-4.59 5.08,0 7.92,7.28 7.92,7.67 0,0.5 -0.4,0.5 -0.6,0.5 -0.45,0 -0.49,-0.15 -0.74,-0.69 -2.14,-5.19 -4.78,-6.38 -6.48,-6.38 -1.05,0 -1.54,0.65 -1.54,2.29 0,1.2 0.1,1.54 0.29,2.39 z"
           inkscape:connector-curvature="0"
           style="fill:#000000;stroke-width:0" /></g>    </g>
    <g
       transform="translate(245.92859,199.99163)"
       id="g5804">
      <g
         style="font-style:normal;font-variant:normal;font-weight:normal;font-stretch:normal;letter-spacing:normal;word-spacing:normal;text-anchor:start;fill:none;fill-opacity:1;fill-rule:evenodd;stroke:#000000;stroke-linecap:butt;stroke-linejoin:miter;stroke-miterlimit:10.43299961;stroke-dasharray:none;stroke-dashoffset:0;stroke-opacity:1"
         id="g5806"
         transform="matrix(1.0285714,0,0,-1.0285714,-180,960)"
         xml:space="preserve"
         stroke-miterlimit="10.433"
         font-style="normal"
         font-variant="normal"
         font-weight="normal"
         font-stretch="normal"
         font-size-adjust="none"
         letter-spacing="normal"
         word-spacing="normal"><path
           style="fill:#000000;stroke-width:0"
           inkscape:connector-curvature="0"
           d="m 494.86,438.93 0,0.01 0.01,0.02 0.01,0.01 0.01,0.02 0.01,0.02 0.01,0.02 0.01,0.02 0.01,0.02 0.02,0.02 0.01,0.02 0.02,0.05 0.02,0.05 0.02,0.05 0.01,0.05 0.02,0.05 0.01,0.02 0,0.02 0.01,0.03 0.01,0.02 0,0.03 0.01,0.02 0,0.02 0.01,0.02 0,0.03 0,0.02 0,0.02 0,0.01 c 0,0.35 -0.05,0.4 -1.19,0.4 l -34.37,0 c -1.15,0 -1.2,-0.05 -1.2,-0.4 0,-0.19 0.15,-0.55 0.25,-0.69 l 16.79,-33.63 c 0.35,-0.64 0.5,-0.94 1.34,-0.94 0.85,0 1,0.3 1.35,0.94 l 0.14,3.74 -13.69,27.4 27.35,0 -13.66,-27.4 -0.14,-3.74 z"
           id="path5808" /><path
           style="fill:#000000;stroke-width:0"
           inkscape:connector-curvature="0"
           d="m 517.56,418.45 0,0.14 -0.01,0.13 -0.02,0.13 -0.02,0.13 -0.03,0.13 -0.04,0.12 -0.04,0.13 -0.05,0.12 -0.05,0.11 -0.06,0.12 -0.06,0.11 -0.07,0.1 -0.08,0.11 -0.07,0.1 -0.09,0.09 -0.09,0.1 -0.09,0.08 -0.09,0.09 -0.1,0.08 -0.11,0.07 -0.1,0.07 -0.11,0.06 -0.12,0.06 -0.11,0.05 -0.12,0.05 -0.13,0.04 -0.12,0.04 -0.13,0.03 -0.13,0.02 -0.13,0.02 -0.13,0.01 -0.13,0 c -1.45,0 -2.65,-1.19 -2.65,-2.64 0,-1.44 1.2,-2.64 2.65,-2.64 1.44,0 2.63,1.2 2.63,2.64 z"
           id="path5810" /><path
           style="fill:#000000;stroke-width:0"
           inkscape:connector-curvature="0"
           d="m 560.75,448.64 -0.07,-0.06 -0.07,-0.07 -0.08,-0.07 -0.08,-0.07 -0.09,-0.08 -0.09,-0.08 -0.09,-0.09 -0.09,-0.09 -0.1,-0.09 -0.09,-0.09 -0.2,-0.19 -0.19,-0.19 -0.19,-0.21 -0.09,-0.1 -0.09,-0.1 -0.09,-0.1 -0.08,-0.11 -0.08,-0.1 -0.08,-0.1 -0.07,-0.1 -0.06,-0.1 -0.06,-0.1 -0.05,-0.1 -0.05,-0.1 -0.04,-0.09 -0.03,-0.1 -0.02,-0.09 -0.02,-0.09 0,-0.08 c 0,-0.5 0.5,-1 1,-1 0.44,0 0.69,0.35 0.94,0.65 0.6,0.75 1.74,2.14 3.93,3.24 0.36,0.2 0.85,0.45 0.85,1.05 0,0.49 -0.35,0.74 -0.69,0.99 -1.1,0.75 -1.65,1.64 -2.04,2.84 -0.11,0.45 -0.31,1.1 -1,1.1 -0.7,0 -1,-0.65 -1,-1.05 0,-0.25 0.4,-1.84 1.2,-2.89 l -16.79,0 c -0.85,0 -1.74,0 -1.74,-0.99 0,-1 0.89,-1 1.74,-1 z"
           id="path5812" /><path
           style="fill:#000000;stroke-width:0"
           inkscape:connector-curvature="0"
           d="m 555.81,423.79 0.45,0.09 0.44,0.11 0.43,0.12 0.43,0.13 0.41,0.15 0.4,0.15 0.39,0.17 0.38,0.18 0.37,0.19 0.36,0.19 0.35,0.21 0.33,0.22 0.32,0.23 0.31,0.24 0.3,0.24 0.28,0.26 0.27,0.26 0.25,0.27 0.24,0.28 0.22,0.28 0.21,0.29 0.19,0.3 0.17,0.3 0.16,0.31 0.14,0.32 0.12,0.32 0.11,0.32 0.08,0.33 0.07,0.33 0.05,0.34 0.03,0.34 0.01,0.35 c 0,4.33 -4.58,8.41 -11.06,8.41 l -0.34,-1.54 c 4.83,0 6.57,-4.24 6.57,-6.87 0,-3.2 -2.44,-7.38 -7.97,-7.38 l -7.22,0 0,-1.09 9.36,0 c 4.93,0 7.03,-4.64 7.03,-7.98 0,-3.53 -2.6,-7.62 -7.72,-7.62 l 0,0 -6.23,0 c -2.34,0 -2.44,0.35 -2.44,2 l 0,13.6 0,1.09 0,12.25 c 0,1.65 0.1,2 2.44,2 l 6.18,0 0.34,1.54 -18.23,0 0,-1.54 1.2,0 c 3.83,0 3.94,-0.55 3.94,-2.34 l 0,-26.25 c 0,-1.8 -0.11,-2.35 -3.94,-2.35 l -1.2,0 0,-1.54 19.53,0 c 6.63,0 11.11,4.43 11.11,9.12 0,4.33 -4.09,8.06 -9.62,8.67 z"
           id="path5814" /><path
           style="fill:#000000;stroke-width:0"
           inkscape:connector-curvature="0"
           d="m 616.22,422.29 0.14,0 0.15,0 0.15,0.01 0.07,0 0.07,0 0.07,0.01 0.08,0.01 0.07,0.01 0.07,0.01 0.06,0.02 0.07,0.01 0.07,0.02 0.06,0.02 0.06,0.03 0.06,0.03 0.05,0.03 0.06,0.03 0.05,0.04 0.04,0.04 0.05,0.05 0.03,0.05 0.02,0.03 0.02,0.02 0.02,0.03 0.01,0.03 0.02,0.03 0.01,0.04 0.01,0.03 0.01,0.04 0.01,0.03 0.01,0.04 0.01,0.04 0,0.04 0.01,0.04 0,0.04 0,0.05 0,0.05 c 0,0.99 -0.94,0.99 -1.64,0.99 l -29.84,0 c -0.7,0 -1.64,0 -1.64,-0.99 0,-1 0.94,-1 1.69,-1 z"
           id="path5816" /><path
           style="fill:#000000;stroke-width:0"
           inkscape:connector-curvature="0"
           d="m 616.27,412.62 0.13,0.01 0.14,0 0.14,0 0.07,0.01 0.07,0 0.07,0.01 0.07,0.01 0.07,0.01 0.07,0.01 0.06,0.01 0.07,0.02 0.06,0.02 0.06,0.02 0.06,0.02 0.06,0.03 0.06,0.03 0.05,0.04 0.05,0.04 0.04,0.04 0.05,0.04 0.02,0.03 0.02,0.03 0.01,0.02 0.02,0.03 0.02,0.03 0.01,0.03 0.02,0.03 0.01,0.03 0.01,0.04 0.01,0.03 0.01,0.04 0.01,0.04 0.01,0.04 0,0.04 0.01,0.04 0,0.04 0,0.05 0,0.04 c 0,1 -0.94,1 -1.69,1 l -29.74,0 c -0.75,0 -1.69,0 -1.69,-1 0,-1 0.94,-1 1.64,-1 z"
           id="path5818" /><path
           style="fill:#000000;stroke-width:0"
           inkscape:connector-curvature="0"
           d="m 657.91,421.94 0,0.75 -0.01,0.74 -0.02,0.75 -0.03,0.74 -0.05,0.75 -0.06,0.74 -0.07,0.74 -0.1,0.73 -0.11,0.73 -0.14,0.73 -0.16,0.72 -0.19,0.72 -0.22,0.71 -0.24,0.71 -0.28,0.7 -0.15,0.35 -0.16,0.35 c -2.29,4.78 -6.37,5.58 -8.47,5.58 -2.98,0 -6.62,-1.3 -8.67,-5.93 -1.59,-3.44 -1.84,-7.32 -1.84,-11.31 0,-3.74 0.2,-8.22 2.24,-12.01 2.15,-4.03 5.78,-5.03 8.22,-5.03 l 0,1.1 c -1.94,0 -4.88,1.25 -5.78,6.03 -0.54,2.99 -0.54,7.57 -0.54,10.51 0,3.19 0,6.47 0.4,9.16 0.94,5.93 4.68,6.38 5.92,6.38 1.65,0 4.94,-0.9 5.88,-5.83 0.5,-2.79 0.5,-6.57 0.5,-9.71 0,-3.74 0,-7.13 -0.55,-10.31 -0.75,-4.73 -3.58,-6.23 -5.83,-6.23 l 0,0 0,-1.1 c 2.69,0 6.48,1.05 8.67,5.78 1.59,3.44 1.84,7.32 1.84,11.26 z"
           id="path5820" /></g>    </g>
    <g
       id="g5916"
       transform="translate(243.30573,281.42858)">
      <g
         word-spacing="normal"
         letter-spacing="normal"
         font-size-adjust="none"
         font-stretch="normal"
         font-weight="normal"
         font-variant="normal"
         font-style="normal"
         stroke-miterlimit="10.433"
         xml:space="preserve"
         transform="matrix(1.0285714,0,0,-1.0285714,-180,960)"
         id="g5918"
         style="font-style:normal;font-variant:normal;font-weight:normal;font-stretch:normal;letter-spacing:normal;word-spacing:normal;text-anchor:start;fill:none;fill-opacity:1;fill-rule:evenodd;stroke:#000000;stroke-linecap:butt;stroke-linejoin:miter;stroke-miterlimit:10.43299961;stroke-dasharray:none;stroke-dashoffset:0;stroke-opacity:1"><path
           id="path5920"
           d="m 494.86,438.93 0,0.01 0.01,0.02 0.01,0.01 0.01,0.02 0.01,0.02 0.01,0.02 0.01,0.02 0.01,0.02 0.02,0.02 0.01,0.02 0.02,0.05 0.02,0.05 0.02,0.05 0.01,0.05 0.02,0.05 0.01,0.02 0,0.02 0.01,0.03 0.01,0.02 0,0.03 0.01,0.02 0,0.02 0.01,0.02 0,0.03 0,0.02 0,0.02 0,0.01 c 0,0.35 -0.05,0.4 -1.19,0.4 l -34.37,0 c -1.15,0 -1.2,-0.05 -1.2,-0.4 0,-0.19 0.15,-0.55 0.25,-0.69 l 16.79,-33.63 c 0.35,-0.64 0.5,-0.94 1.34,-0.94 0.85,0 1,0.3 1.35,0.94 l 0.14,3.74 -13.69,27.4 27.35,0 -13.66,-27.4 -0.14,-3.74 z"
           inkscape:connector-curvature="0"
           style="fill:#000000;stroke-width:0" /><path
           id="path5922"
           d="m 517.56,418.45 0,0.14 -0.01,0.13 -0.02,0.13 -0.02,0.13 -0.03,0.13 -0.04,0.12 -0.04,0.13 -0.05,0.12 -0.05,0.11 -0.06,0.12 -0.06,0.11 -0.07,0.1 -0.08,0.11 -0.07,0.1 -0.09,0.09 -0.09,0.1 -0.09,0.08 -0.09,0.09 -0.1,0.08 -0.11,0.07 -0.1,0.07 -0.11,0.06 -0.12,0.06 -0.11,0.05 -0.12,0.05 -0.13,0.04 -0.12,0.04 -0.13,0.03 -0.13,0.02 -0.13,0.02 -0.13,0.01 -0.13,0 c -1.45,0 -2.65,-1.19 -2.65,-2.64 0,-1.44 1.2,-2.64 2.65,-2.64 1.44,0 2.63,1.2 2.63,2.64 z"
           inkscape:connector-curvature="0"
           style="fill:#000000;stroke-width:0" /><path
           id="path5924"
           d="m 562.75,448.64 -0.07,-0.06 -0.07,-0.07 -0.08,-0.07 -0.08,-0.07 -0.09,-0.08 -0.09,-0.08 -0.09,-0.09 -0.09,-0.09 -0.1,-0.09 -0.09,-0.09 -0.2,-0.19 -0.19,-0.19 -0.19,-0.21 -0.09,-0.1 -0.09,-0.1 -0.09,-0.1 -0.08,-0.11 -0.08,-0.1 -0.08,-0.1 -0.07,-0.1 -0.06,-0.1 -0.06,-0.1 -0.05,-0.1 -0.05,-0.1 -0.04,-0.09 -0.03,-0.1 -0.02,-0.09 -0.02,-0.09 0,-0.08 c 0,-0.5 0.5,-1 1,-1 0.44,0 0.69,0.35 0.94,0.65 0.6,0.75 1.74,2.14 3.93,3.24 0.36,0.2 0.85,0.45 0.85,1.05 0,0.49 -0.35,0.74 -0.69,0.99 -1.1,0.75 -1.65,1.64 -2.04,2.84 -0.11,0.45 -0.31,1.1 -1,1.1 -0.7,0 -1,-0.65 -1,-1.05 0,-0.25 0.4,-1.84 1.2,-2.89 l -16.79,0 c -0.85,0 -1.74,0 -1.74,-0.99 0,-1 0.89,-1 1.74,-1 z"
           inkscape:connector-curvature="0"
           style="fill:#000000;stroke-width:0" /><path
           id="path5926"
           d="m 534.74,440.02 0,-1.54 1.2,0 c 3.83,0 3.94,-0.55 3.94,-2.34 l 0,-26.25 c 0,-1.8 -0.11,-2.35 -3.94,-2.35 l -1.2,0 0,-1.54 18.24,0 -1.35,1.54 -5.03,0 c -2.34,0 -2.44,0.35 -2.44,2 l 0,26.94 c 0,1.65 0.1,2 2.44,2 l 4.98,0 c 3.09,0 6.52,-1.1 9.07,-4.64 2.14,-2.93 2.59,-7.22 2.59,-11.1 0,-5.53 -0.95,-8.52 -2.74,-10.96 -1,-1.35 -3.84,-4.24 -8.87,-4.24 l 1.35,-1.54 c 8.36,0 15.24,7.37 15.24,16.74 0,9.46 -6.73,17.28 -15.24,17.28 z"
           inkscape:connector-curvature="0"
           style="fill:#000000;stroke-width:0" /><path
           id="path5928"
           d="m 619.22,422.29 0.14,0 0.15,0 0.15,0.01 0.07,0 0.07,0 0.07,0.01 0.08,0.01 0.07,0.01 0.07,0.01 0.06,0.02 0.07,0.01 0.07,0.02 0.06,0.02 0.06,0.03 0.06,0.03 0.05,0.03 0.06,0.03 0.05,0.04 0.04,0.04 0.05,0.05 0.03,0.05 0.02,0.03 0.02,0.02 0.02,0.03 0.01,0.03 0.02,0.03 0.01,0.04 0.01,0.03 0.01,0.04 0.01,0.03 0.01,0.04 0.01,0.04 0,0.04 0.01,0.04 0,0.04 0,0.05 0,0.05 c 0,0.99 -0.94,0.99 -1.64,0.99 l -29.84,0 c -0.7,0 -1.64,0 -1.64,-0.99 0,-1 0.94,-1 1.69,-1 z"
           inkscape:connector-curvature="0"
           style="fill:#000000;stroke-width:0" /><path
           id="path5930"
           d="m 619.27,412.62 0.13,0.01 0.14,0 0.14,0 0.07,0.01 0.07,0 0.07,0.01 0.07,0.01 0.07,0.01 0.07,0.01 0.06,0.01 0.07,0.02 0.06,0.02 0.06,0.02 0.06,0.02 0.06,0.03 0.06,0.03 0.05,0.04 0.05,0.04 0.04,0.04 0.05,0.04 0.02,0.03 0.02,0.03 0.01,0.02 0.02,0.03 0.02,0.03 0.01,0.03 0.02,0.03 0.01,0.03 0.01,0.04 0.01,0.03 0.01,0.04 0.01,0.04 0.01,0.04 0,0.04 0.01,0.04 0,0.04 0,0.05 0,0.04 c 0,1 -0.94,1 -1.69,1 l -29.74,0 c -0.75,0 -1.69,0 -1.69,-1 0,-1 0.94,-1 1.64,-1 z"
           inkscape:connector-curvature="0"
           style="fill:#000000;stroke-width:0" /><path
           id="path5932"
           d="m 639.65,397.38 -0.01,-0.02 -0.01,-0.03 0,-0.03 -0.01,-0.02 -0.01,-0.03 0,-0.02 -0.01,-0.03 0,-0.02 -0.01,-0.02 0,-0.02 -0.01,-0.02 0,-0.02 -0.01,-0.02 0,-0.02 -0.01,-0.04 -0.01,-0.03 -0.01,-0.04 0,-0.03 -0.01,-0.03 0,-0.02 -0.01,-0.03 0,-0.02 -0.01,-0.02 0,-0.02 0,-0.02 0,-0.02 -0.01,-0.02 0,-0.01 0,-0.02 0,-0.01 0,-0.01 0,-0.01 0,-0.02 0,-0.02 0,-0.02 0,-0.01 c 0,-0.75 0.54,-1.35 1.39,-1.35 1.04,0 1.64,0.9 1.74,1.05 0.25,0.44 1.85,7.12 3.19,12.5 1,-1.99 2.59,-3.34 4.93,-3.34 l -0.05,1.1 c -3.48,0 -4.28,3.98 -4.28,4.43 0,0.2 0.25,1.2 0.4,1.84 1.39,5.58 1.89,7.38 2.98,9.37 2.15,3.63 4.64,4.73 6.18,4.73 1.84,0 3.44,-1.44 3.44,-4.88 0,-2.74 -1.44,-8.32 -2.79,-10.76 -1.65,-3.14 -4.04,-4.73 -5.93,-4.73 l 0,0 0.05,-1.1 c 5.83,0 12.26,7.03 12.26,14.45 0,5.28 -3.29,8.12 -6.93,8.12 -4.83,0 -10.06,-4.98 -11.55,-11.06 z"
           inkscape:connector-curvature="0"
           style="fill:#000000;stroke-width:0" /></g>    </g>
  </g>
</svg>
