<?xml version="1.0" encoding="UTF-8" standalone="no"?>
<!-- Created with Inkscape (http://www.inkscape.org/) -->

<svg
   xmlns:dc="http://purl.org/dc/elements/1.1/"
   xmlns:cc="http://creativecommons.org/ns#"
   xmlns:rdf="http://www.w3.org/1999/02/22-rdf-syntax-ns#"
   xmlns:svg="http://www.w3.org/2000/svg"
   xmlns="http://www.w3.org/2000/svg"
   xmlns:xlink="http://www.w3.org/1999/xlink"
   xmlns:sodipodi="http://sodipodi.sourceforge.net/DTD/sodipodi-0.dtd"
   xmlns:inkscape="http://www.inkscape.org/namespaces/inkscape"
   width="210mm"
   height="297mm"
   viewBox="0 0 744.09448819 1052.3622047"
   id="svg7182"
   version="1.1"
   inkscape:version="0.91 r13725"
   sodipodi:docname="resistividade_kearey.svg"
   inkscape:export-filename="/home/patrick/TCC/TCC-git/documentos/apres_pre_projeto_2018-04-13/imagens/resistividade_kearey.png"
   inkscape:export-xdpi="300"
   inkscape:export-ydpi="300">
  <sodipodi:namedview
     id="base"
     pagecolor="#ffffff"
     bordercolor="#666666"
     borderopacity="1.0"
     inkscape:pageopacity="0.0"
     inkscape:pageshadow="2"
     inkscape:zoom="0.70710678"
     inkscape:cx="550.31531"
     inkscape:cy="820.27503"
     inkscape:document-units="px"
     inkscape:current-layer="layer1"
     showgrid="false"
     inkscape:window-width="1325"
     inkscape:window-height="744"
     inkscape:window-x="41"
     inkscape:window-y="24"
     inkscape:window-maximized="1" />
  <defs
     id="defs7184">
    <marker
       inkscape:isstock="true"
       style="overflow:visible"
       id="marker12613"
       refX="0.0"
       refY="0.0"
       orient="auto"
       inkscape:stockid="TriangleOutL">
      <path
         transform="scale(0.8)"
         style="fill-rule:evenodd;stroke:#000000;stroke-width:1pt;stroke-opacity:1;fill:#000000;fill-opacity:1"
         d="M 5.77,0.0 L -2.88,5.0 L -2.88,-5.0 L 5.77,0.0 z "
         id="path12615" />
    </marker>
    <marker
       inkscape:isstock="true"
       style="overflow:visible"
       id="marker12267"
       refX="0.0"
       refY="0.0"
       orient="auto"
       inkscape:stockid="TriangleOutL">
      <path
         transform="scale(0.8)"
         style="fill-rule:evenodd;stroke:#000000;stroke-width:1pt;stroke-opacity:1;fill:#000000;fill-opacity:1"
         d="M 5.77,0.0 L -2.88,5.0 L -2.88,-5.0 L 5.77,0.0 z "
         id="path12269" />
    </marker>
    <marker
       inkscape:isstock="true"
       style="overflow:visible"
       id="marker11963"
       refX="0.0"
       refY="0.0"
       orient="auto"
       inkscape:stockid="TriangleOutL">
      <path
         transform="scale(0.8)"
         style="fill-rule:evenodd;stroke:#000000;stroke-width:1pt;stroke-opacity:1;fill:#000000;fill-opacity:1"
         d="M 5.77,0.0 L -2.88,5.0 L -2.88,-5.0 L 5.77,0.0 z "
         id="path11965" />
    </marker>
    <marker
       inkscape:isstock="true"
       style="overflow:visible"
       id="marker11671"
       refX="0.0"
       refY="0.0"
       orient="auto"
       inkscape:stockid="TriangleOutL">
      <path
         transform="scale(0.8)"
         style="fill-rule:evenodd;stroke:#000000;stroke-width:1pt;stroke-opacity:1;fill:#000000;fill-opacity:1"
         d="M 5.77,0.0 L -2.88,5.0 L -2.88,-5.0 L 5.77,0.0 z "
         id="path11673" />
    </marker>
    <marker
       inkscape:isstock="true"
       style="overflow:visible"
       id="marker11391"
       refX="0.0"
       refY="0.0"
       orient="auto"
       inkscape:stockid="TriangleOutL">
      <path
         transform="scale(0.8)"
         style="fill-rule:evenodd;stroke:#000000;stroke-width:1pt;stroke-opacity:1;fill:#000000;fill-opacity:1"
         d="M 5.77,0.0 L -2.88,5.0 L -2.88,-5.0 L 5.77,0.0 z "
         id="path11393" />
    </marker>
    <marker
       inkscape:isstock="true"
       style="overflow:visible"
       id="marker11123"
       refX="0.0"
       refY="0.0"
       orient="auto"
       inkscape:stockid="TriangleOutL">
      <path
         transform="scale(0.8)"
         style="fill-rule:evenodd;stroke:#000000;stroke-width:1pt;stroke-opacity:1;fill:#000000;fill-opacity:1"
         d="M 5.77,0.0 L -2.88,5.0 L -2.88,-5.0 L 5.77,0.0 z "
         id="path11125" />
    </marker>
    <marker
       inkscape:isstock="true"
       style="overflow:visible"
       id="marker10867"
       refX="0.0"
       refY="0.0"
       orient="auto"
       inkscape:stockid="TriangleOutL">
      <path
         transform="scale(0.8)"
         style="fill-rule:evenodd;stroke:#000000;stroke-width:1pt;stroke-opacity:1;fill:#000000;fill-opacity:1"
         d="M 5.77,0.0 L -2.88,5.0 L -2.88,-5.0 L 5.77,0.0 z "
         id="path10869" />
    </marker>
    <marker
       inkscape:isstock="true"
       style="overflow:visible"
       id="marker10623"
       refX="0.0"
       refY="0.0"
       orient="auto"
       inkscape:stockid="TriangleOutL">
      <path
         transform="scale(0.8)"
         style="fill-rule:evenodd;stroke:#000000;stroke-width:1pt;stroke-opacity:1;fill:#000000;fill-opacity:1"
         d="M 5.77,0.0 L -2.88,5.0 L -2.88,-5.0 L 5.77,0.0 z "
         id="path10625" />
    </marker>
    <marker
       inkscape:isstock="true"
       style="overflow:visible"
       id="marker10391"
       refX="0.0"
       refY="0.0"
       orient="auto"
       inkscape:stockid="TriangleOutL">
      <path
         transform="scale(0.8)"
         style="fill-rule:evenodd;stroke:#000000;stroke-width:1pt;stroke-opacity:1;fill:#000000;fill-opacity:1"
         d="M 5.77,0.0 L -2.88,5.0 L -2.88,-5.0 L 5.77,0.0 z "
         id="path10393" />
    </marker>
    <marker
       inkscape:isstock="true"
       style="overflow:visible"
       id="marker10171"
       refX="0.0"
       refY="0.0"
       orient="auto"
       inkscape:stockid="TriangleOutL">
      <path
         transform="scale(0.8)"
         style="fill-rule:evenodd;stroke:#000000;stroke-width:1pt;stroke-opacity:1;fill:#000000;fill-opacity:1"
         d="M 5.77,0.0 L -2.88,5.0 L -2.88,-5.0 L 5.77,0.0 z "
         id="path10173" />
    </marker>
    <marker
       inkscape:isstock="true"
       style="overflow:visible"
       id="marker9963"
       refX="0.0"
       refY="0.0"
       orient="auto"
       inkscape:stockid="TriangleOutL">
      <path
         transform="scale(0.8)"
         style="fill-rule:evenodd;stroke:#000000;stroke-width:1pt;stroke-opacity:1;fill:#000000;fill-opacity:1"
         d="M 5.77,0.0 L -2.88,5.0 L -2.88,-5.0 L 5.77,0.0 z "
         id="path9965" />
    </marker>
    <marker
       inkscape:isstock="true"
       style="overflow:visible"
       id="marker9767"
       refX="0.0"
       refY="0.0"
       orient="auto"
       inkscape:stockid="TriangleOutL">
      <path
         transform="scale(0.8)"
         style="fill-rule:evenodd;stroke:#000000;stroke-width:1pt;stroke-opacity:1;fill:#000000;fill-opacity:1"
         d="M 5.77,0.0 L -2.88,5.0 L -2.88,-5.0 L 5.77,0.0 z "
         id="path9769" />
    </marker>
    <marker
       inkscape:isstock="true"
       style="overflow:visible"
       id="marker9583"
       refX="0.0"
       refY="0.0"
       orient="auto"
       inkscape:stockid="TriangleOutL">
      <path
         transform="scale(0.8)"
         style="fill-rule:evenodd;stroke:#000000;stroke-width:1pt;stroke-opacity:1;fill:#000000;fill-opacity:1"
         d="M 5.77,0.0 L -2.88,5.0 L -2.88,-5.0 L 5.77,0.0 z "
         id="path9585" />
    </marker>
    <marker
       inkscape:isstock="true"
       style="overflow:visible"
       id="marker9411"
       refX="0.0"
       refY="0.0"
       orient="auto"
       inkscape:stockid="TriangleOutL">
      <path
         transform="scale(0.8)"
         style="fill-rule:evenodd;stroke:#000000;stroke-width:1pt;stroke-opacity:1;fill:#000000;fill-opacity:1"
         d="M 5.77,0.0 L -2.88,5.0 L -2.88,-5.0 L 5.77,0.0 z "
         id="path9413" />
    </marker>
    <marker
       inkscape:isstock="true"
       style="overflow:visible"
       id="marker9251"
       refX="0.0"
       refY="0.0"
       orient="auto"
       inkscape:stockid="TriangleOutL">
      <path
         transform="scale(0.8)"
         style="fill-rule:evenodd;stroke:#000000;stroke-width:1pt;stroke-opacity:1;fill:#000000;fill-opacity:1"
         d="M 5.77,0.0 L -2.88,5.0 L -2.88,-5.0 L 5.77,0.0 z "
         id="path9253" />
    </marker>
    <marker
       inkscape:isstock="true"
       style="overflow:visible"
       id="marker9103"
       refX="0.0"
       refY="0.0"
       orient="auto"
       inkscape:stockid="TriangleOutL">
      <path
         transform="scale(0.8)"
         style="fill-rule:evenodd;stroke:#000000;stroke-width:1pt;stroke-opacity:1;fill:#000000;fill-opacity:1"
         d="M 5.77,0.0 L -2.88,5.0 L -2.88,-5.0 L 5.77,0.0 z "
         id="path9105" />
    </marker>
    <marker
       inkscape:isstock="true"
       style="overflow:visible"
       id="marker8967"
       refX="0.0"
       refY="0.0"
       orient="auto"
       inkscape:stockid="TriangleOutL">
      <path
         transform="scale(0.8)"
         style="fill-rule:evenodd;stroke:#000000;stroke-width:1pt;stroke-opacity:1;fill:#000000;fill-opacity:1"
         d="M 5.77,0.0 L -2.88,5.0 L -2.88,-5.0 L 5.77,0.0 z "
         id="path8969" />
    </marker>
    <linearGradient
       id="linearGradient8067"
       inkscape:collect="always">
      <stop
         id="stop8069"
         offset="0"
         style="stop-color:#0079ff;stop-opacity:1" />
      <stop
         id="stop8071"
         offset="1"
         style="stop-color:#ff0000;stop-opacity:1" />
    </linearGradient>
    <clipPath
       clipPathUnits="userSpaceOnUse"
       id="clipPath7737">
      <rect
         style="opacity:1;fill:none;fill-opacity:1;fill-rule:evenodd;stroke:#000000;stroke-width:1.5;stroke-linecap:butt;stroke-linejoin:miter;stroke-miterlimit:4;stroke-dasharray:none;stroke-opacity:1"
         id="rect7739"
         width="623.2641"
         height="34.345188"
         x="53.538086"
         y="128.07263" />
    </clipPath>
    <clipPath
       clipPathUnits="userSpaceOnUse"
       id="clipPath7737-2">
      <rect
         style="opacity:1;fill:none;fill-opacity:1;fill-rule:evenodd;stroke:#000000;stroke-width:1.5;stroke-linecap:butt;stroke-linejoin:miter;stroke-miterlimit:4;stroke-dasharray:none;stroke-opacity:1"
         id="rect7739-8"
         width="623.2641"
         height="34.345188"
         x="53.538086"
         y="128.07263" />
    </clipPath>
    <linearGradient
       inkscape:collect="always"
       xlink:href="#linearGradient8067"
       id="linearGradient7958"
       x1="234.85"
       y1="175.8622"
       x2="422.15"
       y2="175.8622"
       gradientUnits="userSpaceOnUse"
       gradientTransform="matrix(1,0,0,0.8199796,-0.70710678,17.050949)" />
    <linearGradient
       gradientTransform="matrix(0.75442122,0,0,0.82451392,-6.6905904,71.191306)"
       inkscape:collect="always"
       xlink:href="#linearGradient8067"
       id="linearGradient7958-9"
       x1="234.85001"
       y1="175.8622"
       x2="422.14999"
       y2="175.8622"
       gradientUnits="userSpaceOnUse" />
    <linearGradient
       gradientTransform="matrix(2.0732103,0,0,0.80498661,-329.95772,102.09433)"
       inkscape:collect="always"
       xlink:href="#linearGradient8067"
       id="linearGradient7958-6"
       x1="234.85001"
       y1="175.8622"
       x2="422.14999"
       y2="175.8622"
       gradientUnits="userSpaceOnUse" />
    <linearGradient
       gradientTransform="matrix(2.4473695,0,0,0.80079225,-486.54845,130.30087)"
       inkscape:collect="always"
       xlink:href="#linearGradient8067"
       id="linearGradient7958-8"
       x1="234.85001"
       y1="175.8622"
       x2="422.14999"
       y2="175.8622"
       gradientUnits="userSpaceOnUse" />
    <linearGradient
       gradientTransform="matrix(0.71664282,0,0,0.82527626,9.5663283,153.46396)"
       inkscape:collect="always"
       xlink:href="#linearGradient8067"
       id="linearGradient7958-96"
       x1="234.85001"
       y1="175.8622"
       x2="422.14999"
       y2="175.8622"
       gradientUnits="userSpaceOnUse" />
    <linearGradient
       gradientTransform="matrix(0.2936198,0,0,0.8358954,17.991767,179.06534)"
       inkscape:collect="always"
       xlink:href="#linearGradient8067"
       id="linearGradient7958-4"
       x1="234.85001"
       y1="175.8622"
       x2="422.14999"
       y2="175.8622"
       gradientUnits="userSpaceOnUse" />
    <linearGradient
       gradientTransform="matrix(0.77331075,0,0,0.82414009,94.772506,43.788174)"
       inkscape:collect="always"
       xlink:href="#linearGradient8067"
       id="linearGradient7958-64"
       x1="234.85001"
       y1="175.8622"
       x2="422.14999"
       y2="175.8622"
       gradientUnits="userSpaceOnUse" />
    <linearGradient
       gradientTransform="matrix(0.50888139,0,0,0.82990152,24.02633,207.58834)"
       inkscape:collect="always"
       xlink:href="#linearGradient8067"
       id="linearGradient7958-7"
       x1="234.85001"
       y1="175.8622"
       x2="422.14999"
       y2="175.8622"
       gradientUnits="userSpaceOnUse" />
    <marker
       inkscape:stockid="TriangleOutL"
       orient="auto"
       refY="0"
       refX="0"
       id="TriangleOutL-1"
       style="overflow:visible"
       inkscape:isstock="true">
      <path
         inkscape:connector-curvature="0"
         id="path5241-0"
         d="m 5.77,0 -8.65,5 0,-10 8.65,5 z"
         style="fill:#000000;fill-opacity:1;fill-rule:evenodd;stroke:#000000;stroke-width:1pt;stroke-opacity:1"
         transform="scale(0.8,0.8)" />
    </marker>
    <marker
       inkscape:stockid="TriangleOutL"
       orient="auto"
       refY="0"
       refX="0"
       id="TriangleOutL-9"
       style="overflow:visible"
       inkscape:isstock="true">
      <path
         inkscape:connector-curvature="0"
         id="path5241-1"
         d="m 5.77,0 -8.65,5 0,-10 8.65,5 z"
         style="fill:#000000;fill-opacity:1;fill-rule:evenodd;stroke:#000000;stroke-width:1pt;stroke-opacity:1"
         transform="scale(0.8,0.8)" />
    </marker>
    <marker
       inkscape:stockid="TriangleOutL"
       orient="auto"
       refY="0"
       refX="0"
       id="TriangleOutL-7"
       style="overflow:visible"
       inkscape:isstock="true">
      <path
         inkscape:connector-curvature="0"
         id="path5241-3"
         d="m 5.77,0 -8.65,5 0,-10 8.65,5 z"
         style="fill:#000000;fill-opacity:1;fill-rule:evenodd;stroke:#000000;stroke-width:1pt;stroke-opacity:1"
         transform="scale(0.8,0.8)" />
    </marker>
    <marker
       inkscape:stockid="TriangleOutL"
       orient="auto"
       refY="0"
       refX="0"
       id="TriangleOutL-2"
       style="overflow:visible"
       inkscape:isstock="true">
      <path
         inkscape:connector-curvature="0"
         id="path5241-6"
         d="m 5.77,0 -8.65,5 0,-10 8.65,5 z"
         style="fill:#000000;fill-opacity:1;fill-rule:evenodd;stroke:#000000;stroke-width:1pt;stroke-opacity:1"
         transform="scale(0.8,0.8)" />
    </marker>
    <marker
       inkscape:stockid="TriangleOutL"
       orient="auto"
       refY="0"
       refX="0"
       id="TriangleOutL-5"
       style="overflow:visible"
       inkscape:isstock="true">
      <path
         inkscape:connector-curvature="0"
         id="path5241-4"
         d="m 5.77,0 -8.65,5 0,-10 8.65,5 z"
         style="fill:#000000;fill-opacity:1;fill-rule:evenodd;stroke:#000000;stroke-width:1pt;stroke-opacity:1"
         transform="scale(0.8,0.8)" />
    </marker>
    <marker
       inkscape:stockid="TriangleOutL"
       orient="auto"
       refY="0"
       refX="0"
       id="TriangleOutL-76"
       style="overflow:visible"
       inkscape:isstock="true">
      <path
         inkscape:connector-curvature="0"
         id="path5241-8"
         d="m 5.77,0 -8.65,5 0,-10 8.65,5 z"
         style="fill:#000000;fill-opacity:1;fill-rule:evenodd;stroke:#000000;stroke-width:1pt;stroke-opacity:1"
         transform="scale(0.8,0.8)" />
    </marker>
    <marker
       inkscape:stockid="TriangleOutL"
       orient="auto"
       refY="0"
       refX="0"
       id="TriangleOutL-54"
       style="overflow:visible"
       inkscape:isstock="true">
      <path
         inkscape:connector-curvature="0"
         id="path5241-35"
         d="m 5.77,0 -8.65,5 0,-10 8.65,5 z"
         style="fill:#000000;fill-opacity:1;fill-rule:evenodd;stroke:#000000;stroke-width:1pt;stroke-opacity:1"
         transform="scale(0.8,0.8)" />
    </marker>
    <marker
       inkscape:stockid="TriangleOutL"
       orient="auto"
       refY="0"
       refX="0"
       id="TriangleOutL-95"
       style="overflow:visible"
       inkscape:isstock="true">
      <path
         inkscape:connector-curvature="0"
         id="path5241-83"
         d="m 5.77,0 -8.65,5 0,-10 8.65,5 z"
         style="fill:#000000;fill-opacity:1;fill-rule:evenodd;stroke:#000000;stroke-width:1pt;stroke-opacity:1"
         transform="scale(0.8,0.8)" />
    </marker>
  </defs>
  <metadata
     id="metadata7187">
    <rdf:RDF>
      <cc:Work
         rdf:about="">
        <dc:format>image/svg+xml</dc:format>
        <dc:type
           rdf:resource="http://purl.org/dc/dcmitype/StillImage" />
        <dc:title />
      </cc:Work>
    </rdf:RDF>
  </metadata>
  <g
     inkscape:label="Camada 1"
     inkscape:groupmode="layer"
     id="layer1">
    <rect
       style="opacity:1;fill:none;fill-opacity:1;fill-rule:evenodd;stroke:#000000;stroke-width:1.5;stroke-linecap:butt;stroke-linejoin:miter;stroke-miterlimit:4;stroke-dasharray:none;stroke-opacity:1"
       id="rect7730"
       width="577.14288"
       height="385.71429"
       x="77.14286"
       y="149.50507"
       clip-path="url(#clipPath7737)"
       transform="matrix(0.8062243,0,0,0.8199796,22.845216,25.748146)" />
    <path
       style="fill:none;fill-rule:evenodd;stroke:#000000;stroke-width:0.7244218;stroke-linecap:butt;stroke-linejoin:miter;stroke-miterlimit:4;stroke-dasharray:none;stroke-opacity:1"
       d="m 94.005462,147.86339 -0.002,-4.83423"
       id="path7762"
       inkscape:connector-curvature="0" />
    <path
       style="fill:none;fill-rule:evenodd;stroke:#000000;stroke-width:0.7244218;stroke-linecap:butt;stroke-linejoin:miter;stroke-miterlimit:4;stroke-dasharray:none;stroke-opacity:1"
       d="m 149.30848,147.86339 -0.002,-4.83423"
       id="path7762-7"
       inkscape:connector-curvature="0" />
    <path
       style="fill:none;fill-rule:evenodd;stroke:#000000;stroke-width:0.7244218;stroke-linecap:butt;stroke-linejoin:miter;stroke-miterlimit:4;stroke-dasharray:none;stroke-opacity:1"
       d="m 204.61151,147.86339 -0.002,-4.83423"
       id="path7762-3"
       inkscape:connector-curvature="0" />
    <path
       style="fill:none;fill-rule:evenodd;stroke:#000000;stroke-width:0.7244218;stroke-linecap:butt;stroke-linejoin:miter;stroke-miterlimit:4;stroke-dasharray:none;stroke-opacity:1"
       d="m 259.91451,147.86339 -0.002,-4.83423"
       id="path7762-6"
       inkscape:connector-curvature="0" />
    <path
       style="fill:none;fill-rule:evenodd;stroke:#000000;stroke-width:0.7244218;stroke-linecap:butt;stroke-linejoin:miter;stroke-miterlimit:4;stroke-dasharray:none;stroke-opacity:1"
       d="m 315.21752,147.86339 -0.002,-4.83423"
       id="path7762-1"
       inkscape:connector-curvature="0" />
    <path
       style="fill:none;fill-rule:evenodd;stroke:#000000;stroke-width:0.7244218;stroke-linecap:butt;stroke-linejoin:miter;stroke-miterlimit:4;stroke-dasharray:none;stroke-opacity:1"
       d="m 370.52052,147.86339 -0.002,-4.83423"
       id="path7762-2"
       inkscape:connector-curvature="0" />
    <path
       style="fill:none;fill-rule:evenodd;stroke:#000000;stroke-width:0.7244218;stroke-linecap:butt;stroke-linejoin:miter;stroke-miterlimit:4;stroke-dasharray:none;stroke-opacity:1"
       d="m 425.82357,147.86339 -0.002,-4.83423"
       id="path7762-9"
       inkscape:connector-curvature="0" />
    <path
       style="fill:none;fill-rule:evenodd;stroke:#000000;stroke-width:0.7244218;stroke-linecap:butt;stroke-linejoin:miter;stroke-miterlimit:4;stroke-dasharray:none;stroke-opacity:1"
       d="m 481.12659,147.86339 -0.002,-4.83423"
       id="path7762-31"
       inkscape:connector-curvature="0" />
    <path
       style="fill:none;fill-rule:evenodd;stroke:#000000;stroke-width:0.7244218;stroke-linecap:butt;stroke-linejoin:miter;stroke-miterlimit:4;stroke-dasharray:none;stroke-opacity:1"
       d="m 536.42956,147.86339 -0.002,-4.83423"
       id="path7762-94"
       inkscape:connector-curvature="0" />
    <path
       style="fill:none;fill-rule:evenodd;stroke:#000000;stroke-width:0.27165818;stroke-linecap:butt;stroke-linejoin:miter;stroke-miterlimit:4;stroke-dasharray:3.25989823, 3.25989823;stroke-dashoffset:0.44999996;stroke-opacity:1"
       d="m 93.898863,148.31336 0,212.0233"
       id="path7821"
       inkscape:connector-curvature="0" />
    <path
       style="fill:none;fill-rule:evenodd;stroke:#000000;stroke-width:0.27165818;stroke-linecap:butt;stroke-linejoin:miter;stroke-miterlimit:4;stroke-dasharray:3.25989823, 3.25989823;stroke-dashoffset:0.44999996;stroke-opacity:1"
       d="m 149.17027,148.33925 0,212.02329"
       id="path7821-7"
       inkscape:connector-curvature="0" />
    <path
       style="fill:none;fill-rule:evenodd;stroke:#000000;stroke-width:0.27165818;stroke-linecap:butt;stroke-linejoin:miter;stroke-miterlimit:4;stroke-dasharray:3.25989823, 3.25989823;stroke-dashoffset:0.44999996;stroke-opacity:1"
       d="m 204.5759,147.46985 0,212.02329"
       id="path7821-8"
       inkscape:connector-curvature="0" />
    <path
       style="fill:none;fill-rule:evenodd;stroke:#000000;stroke-width:0.27165818;stroke-linecap:butt;stroke-linejoin:miter;stroke-miterlimit:4;stroke-dasharray:3.25989823, 3.25989823;stroke-dashoffset:0.44999996;stroke-opacity:1"
       d="m 315.17745,147.58704 0,212.0233"
       id="path7821-4"
       inkscape:connector-curvature="0" />
    <path
       style="fill:none;fill-rule:evenodd;stroke:#000000;stroke-width:0.27165818;stroke-linecap:butt;stroke-linejoin:miter;stroke-miterlimit:4;stroke-dasharray:3.25989823, 3.25989823;stroke-dashoffset:0.44999996;stroke-opacity:1"
       d="m 259.94419,147.55221 0,212.0233"
       id="path7821-5"
       inkscape:connector-curvature="0" />
    <path
       style="fill:none;fill-rule:evenodd;stroke:#000000;stroke-width:0.27165818;stroke-linecap:butt;stroke-linejoin:miter;stroke-miterlimit:4;stroke-dasharray:3.25989823, 3.25989823;stroke-dashoffset:0.44999996;stroke-opacity:1"
       d="m 481.1049,147.66202 0,212.0233"
       id="path7821-0"
       inkscape:connector-curvature="0" />
    <path
       style="fill:none;fill-rule:evenodd;stroke:#000000;stroke-width:0.27165818;stroke-linecap:butt;stroke-linejoin:miter;stroke-miterlimit:4;stroke-dasharray:3.25989823, 3.25989823;stroke-dashoffset:0.44999996;stroke-opacity:1"
       d="m 370.48905,147.41245 0,212.0233"
       id="path7821-6"
       inkscape:connector-curvature="0" />
    <path
       style="fill:none;fill-rule:evenodd;stroke:#000000;stroke-width:0.27165818;stroke-linecap:butt;stroke-linejoin:miter;stroke-miterlimit:4;stroke-dasharray:3.25989823, 3.25989823;stroke-dashoffset:0.44999996;stroke-opacity:1"
       d="m 425.82532,147.86671 0,212.0233"
       id="path7821-1"
       inkscape:connector-curvature="0" />
    <path
       style="fill:none;fill-rule:evenodd;stroke:#000000;stroke-width:0.27165818;stroke-linecap:butt;stroke-linejoin:miter;stroke-miterlimit:4;stroke-dasharray:3.25989823, 3.25989823;stroke-dashoffset:0.44999996;stroke-opacity:1"
       d="m 536.29465,148.96155 0,212.0233"
       id="path7821-06"
       inkscape:connector-curvature="0" />
    <text
       xml:space="preserve"
       style="font-style:normal;font-weight:normal;font-size:40px;line-height:125%;font-family:'TeX Gyre Heros';letter-spacing:0px;word-spacing:0px;fill:#000000;fill-opacity:1;stroke:none;stroke-width:1px;stroke-linecap:butt;stroke-linejoin:miter;stroke-opacity:1;-inkscape-font-specification:'TeX Gyre Heros';font-stretch:normal;font-variant:normal;"
       x="78"
       y="61.362206"
       id="text7886"
       sodipodi:linespacing="125%"><tspan
         sodipodi:role="line"
         id="tspan7888"
         x="78"
         y="61.362206" /></text>
    <text
       xml:space="preserve"
       style="font-style:normal;font-weight:normal;font-size:15px;line-height:125%;font-family:Ubuntu;letter-spacing:0px;word-spacing:0px;fill:#000000;fill-opacity:1;stroke:none;stroke-width:1px;stroke-linecap:butt;stroke-linejoin:miter;stroke-opacity:1;-inkscape-font-specification:Ubuntu;font-stretch:normal;font-variant:normal;"
       x="76"
       y="30.362206"
       id="text7890"
       sodipodi:linespacing="125%"><tspan
         sodipodi:role="line"
         id="tspan7892"
         x="76"
         y="30.362206" /></text>
    <text
       xml:space="preserve"
       style="font-style:normal;font-weight:normal;font-size:40px;line-height:125%;font-family:sans-serif;letter-spacing:0px;word-spacing:0px;fill:#000000;fill-opacity:1;stroke:none;stroke-width:1px;stroke-linecap:butt;stroke-linejoin:miter;stroke-opacity:1"
       x="88.388351"
       y="137.36603"
       id="text7894"
       sodipodi:linespacing="125%"><tspan
         sodipodi:role="line"
         id="tspan7896"
         x="88.388351"
         y="137.36603"
         style="font-style:normal;font-variant:normal;font-weight:normal;font-stretch:normal;font-size:20px;font-family:'TeX Gyre Bonum';-inkscape-font-specification:'TeX Gyre Bonum'">1</tspan></text>
    <text
       xml:space="preserve"
       style="font-style:normal;font-weight:normal;font-size:40px;line-height:125%;font-family:sans-serif;letter-spacing:0px;word-spacing:0px;fill:#000000;fill-opacity:1;stroke:none;stroke-width:1px;stroke-linecap:butt;stroke-linejoin:miter;stroke-opacity:1"
       x="196.32965"
       y="140.99405"
       id="text7894-8"
       sodipodi:linespacing="125%"><tspan
         sodipodi:role="line"
         id="tspan7896-6"
         x="196.32965"
         y="140.99405"
         style="font-style:normal;font-variant:normal;font-weight:normal;font-stretch:normal;font-size:20px;font-family:'TeX Gyre Bonum';-inkscape-font-specification:'TeX Gyre Bonum'">10²</tspan></text>
    <text
       xml:space="preserve"
       style="font-style:normal;font-weight:normal;font-size:40px;line-height:125%;font-family:sans-serif;letter-spacing:0px;word-spacing:0px;fill:#000000;fill-opacity:1;stroke:none;stroke-width:1px;stroke-linecap:butt;stroke-linejoin:miter;stroke-opacity:1"
       x="299.83813"
       y="139.57982"
       id="text7894-8-9"
       sodipodi:linespacing="125%"><tspan
         sodipodi:role="line"
         id="tspan7896-6-7"
         x="299.83813"
         y="139.57982"
         style="font-style:normal;font-variant:normal;font-weight:normal;font-stretch:normal;font-size:20px;font-family:'TeX Gyre Bonum';-inkscape-font-specification:'TeX Gyre Bonum'">10⁴</tspan></text>
    <text
       xml:space="preserve"
       style="font-style:normal;font-weight:normal;font-size:40px;line-height:125%;font-family:sans-serif;letter-spacing:0px;word-spacing:0px;fill:#000000;fill-opacity:1;stroke:none;stroke-width:1px;stroke-linecap:butt;stroke-linejoin:miter;stroke-opacity:1"
       x="410.85391"
       y="140.6405"
       id="text7894-8-2"
       sodipodi:linespacing="125%"><tspan
         sodipodi:role="line"
         id="tspan7896-6-6"
         x="410.85391"
         y="140.6405"
         style="font-style:normal;font-variant:normal;font-weight:normal;font-stretch:normal;font-size:20px;font-family:'TeX Gyre Bonum';-inkscape-font-specification:'TeX Gyre Bonum'">10⁶</tspan></text>
    <text
       xml:space="preserve"
       style="font-style:normal;font-weight:normal;font-size:40px;line-height:125%;font-family:sans-serif;letter-spacing:0px;word-spacing:0px;fill:#000000;fill-opacity:1;stroke:none;stroke-width:1px;stroke-linecap:butt;stroke-linejoin:miter;stroke-opacity:1"
       x="522.22321"
       y="140.28694"
       id="text7894-8-8"
       sodipodi:linespacing="125%"><tspan
         sodipodi:role="line"
         id="tspan7896-6-8"
         x="522.22321"
         y="140.28694"
         style="font-style:normal;font-variant:normal;font-weight:normal;font-stretch:normal;font-size:20px;font-family:'TeX Gyre Bonum';-inkscape-font-specification:'TeX Gyre Bonum'">10⁸</tspan></text>
    <rect
       style="opacity:0.99599998;fill:url(#linearGradient7958);fill-opacity:1;fill-rule:evenodd;stroke:#000000;stroke-width:0.27165818;stroke-linecap:butt;stroke-linejoin:miter;stroke-miterlimit:4;stroke-dasharray:none;stroke-dashoffset:0.44999993;stroke-opacity:1"
       id="rect7950"
       width="187"
       height="5.7398572"
       x="234.29289"
       y="158.38445" />
    <rect
       style="opacity:0.99599998;fill:url(#linearGradient7958-9);fill-opacity:1;fill-rule:evenodd;stroke:#000000;stroke-width:0.23660679;stroke-linecap:butt;stroke-linejoin:miter;stroke-miterlimit:4;stroke-dasharray:none;stroke-dashoffset:0.44999993;stroke-opacity:1"
       id="rect7950-1"
       width="141.07677"
       height="5.7715974"
       x="170.59839"
       y="213.30634" />
    <rect
       style="opacity:0.99599998;fill:url(#linearGradient7958-6);fill-opacity:1;fill-rule:evenodd;stroke:#000000;stroke-width:0.38755852;stroke-linecap:butt;stroke-linejoin:miter;stroke-miterlimit:4;stroke-dasharray:none;stroke-dashoffset:0.44999993;stroke-opacity:1"
       id="rect7950-4"
       width="387.69034"
       height="5.6349063"
       x="157.24672"
       y="240.84357" />
    <rect
       style="opacity:0.99599998;fill:url(#linearGradient7958-8);fill-opacity:1;fill-rule:evenodd;stroke:#000000;stroke-width:0.41998228;stroke-linecap:butt;stroke-linejoin:miter;stroke-miterlimit:4;stroke-dasharray:none;stroke-dashoffset:0.44999993;stroke-opacity:1"
       id="rect7950-2"
       width="457.65811"
       height="5.605546"
       x="88.583382"
       y="268.32721" />
    <rect
       style="opacity:0.99599998;fill:url(#linearGradient7958-96);fill-opacity:1;fill-rule:evenodd;stroke:#000000;stroke-width:0.23071314;stroke-linecap:butt;stroke-linejoin:miter;stroke-miterlimit:4;stroke-dasharray:none;stroke-dashoffset:0.44999993;stroke-opacity:1"
       id="rect7950-5"
       width="134.01221"
       height="5.7769337"
       x="177.97739"
       y="295.71042" />
    <rect
       style="opacity:0.99599998;fill:url(#linearGradient7958-4);fill-opacity:1;fill-rule:evenodd;stroke:#000000;stroke-width:0.14862433;stroke-linecap:butt;stroke-linejoin:miter;stroke-miterlimit:4;stroke-dasharray:none;stroke-dashoffset:0.44999993;stroke-opacity:1"
       id="rect7950-57"
       width="54.906902"
       height="5.8512678"
       x="86.992424"
       y="323.14212" />
    <rect
       style="opacity:0.99599998;fill:url(#linearGradient7958-64);fill-opacity:1;fill-rule:evenodd;stroke:#000000;stroke-width:0.23949631;stroke-linecap:butt;stroke-linejoin:miter;stroke-miterlimit:4;stroke-dasharray:none;stroke-dashoffset:0.44999993;stroke-opacity:1"
       id="rect7950-3"
       width="144.60912"
       height="5.7689805"
       x="276.50055"
       y="185.83878" />
    <rect
       style="opacity:0.99599998;fill:url(#linearGradient7958-7);fill-opacity:1;fill-rule:evenodd;stroke:#000000;stroke-width:0.19495879;stroke-linecap:butt;stroke-linejoin:miter;stroke-miterlimit:4;stroke-dasharray:none;stroke-dashoffset:0.44999993;stroke-opacity:1"
       id="rect7950-8"
       width="95.16082"
       height="5.8093104"
       x="143.61346"
       y="350.63202" />
    <path
       style="fill:none;fill-rule:evenodd;stroke:#000000;stroke-width:0.6;stroke-linecap:butt;stroke-linejoin:miter;stroke-miterlimit:4;stroke-dasharray:none;stroke-opacity:1"
       d="m 422.51133,160.8622 143.92417,0"
       id="path8073"
       inkscape:connector-curvature="0" />
    <text
       xml:space="preserve"
       style="font-style:normal;font-weight:normal;font-size:40px;line-height:125%;font-family:sans-serif;letter-spacing:0px;word-spacing:0px;fill:#000000;fill-opacity:1;stroke:none;stroke-width:1px;stroke-linecap:butt;stroke-linejoin:miter;stroke-opacity:1"
       x="570.099"
       y="165.72984"
       id="text8075"
       sodipodi:linespacing="125%"><tspan
         sodipodi:role="line"
         id="tspan8077"
         x="570.099"
         y="165.72984"
         style="font-style:normal;font-variant:normal;font-weight:normal;font-stretch:normal;font-size:15px;font-family:Ubuntu;-inkscape-font-specification:Ubuntu">Granito</tspan></text>
    <path
       style="fill:none;fill-rule:evenodd;stroke:#000000;stroke-width:0.6;stroke-linecap:butt;stroke-linejoin:miter;stroke-miterlimit:4;stroke-dasharray:none;stroke-opacity:1"
       d="m 422.17987,188.90956 144.25563,0"
       id="path8073-5"
       inkscape:connector-curvature="0" />
    <text
       xml:space="preserve"
       style="font-style:normal;font-weight:normal;font-size:40px;line-height:125%;font-family:sans-serif;letter-spacing:0px;word-spacing:0px;fill:#000000;fill-opacity:1;stroke:none;stroke-width:1px;stroke-linecap:butt;stroke-linejoin:miter;stroke-opacity:1"
       x="570.099"
       y="193.77721"
       id="text8075-1"
       sodipodi:linespacing="125%"><tspan
         sodipodi:role="line"
         id="tspan8077-8"
         x="570.099"
         y="193.77721"
         style="font-style:normal;font-variant:normal;font-weight:normal;font-stretch:normal;font-size:15px;font-family:Ubuntu;-inkscape-font-specification:Ubuntu">Gabro</tspan></text>
    <path
       style="fill:none;fill-rule:evenodd;stroke:#000000;stroke-width:0.6;stroke-linecap:butt;stroke-linejoin:miter;stroke-miterlimit:4;stroke-dasharray:none;stroke-opacity:1"
       d="m 312.40934,216.20506 254.02616,0"
       id="path8073-9"
       inkscape:connector-curvature="0" />
    <text
       xml:space="preserve"
       style="font-style:normal;font-weight:normal;font-size:40px;line-height:125%;font-family:sans-serif;letter-spacing:0px;word-spacing:0px;fill:#000000;fill-opacity:1;stroke:none;stroke-width:1px;stroke-linecap:butt;stroke-linejoin:miter;stroke-opacity:1"
       x="570.62402"
       y="221.07271"
       id="text8075-12"
       sodipodi:linespacing="125%"><tspan
         sodipodi:role="line"
         id="tspan8077-6"
         x="570.62402"
         y="221.07271"
         style="font-style:normal;font-variant:normal;font-weight:normal;font-stretch:normal;font-size:15px;font-family:Ubuntu;-inkscape-font-specification:Ubuntu">Xisto</tspan></text>
    <path
       style="fill:none;fill-rule:evenodd;stroke:#000000;stroke-width:0.60000002;stroke-linecap:butt;stroke-linejoin:miter;stroke-miterlimit:4;stroke-dasharray:none;stroke-opacity:1"
       d="m 546.4355,243.40956 20,0"
       id="path8073-6"
       inkscape:connector-curvature="0" />
    <text
       xml:space="preserve"
       style="font-style:normal;font-weight:normal;font-size:40px;line-height:125%;font-family:sans-serif;letter-spacing:0px;word-spacing:0px;fill:#000000;fill-opacity:1;stroke:none;stroke-width:1px;stroke-linecap:butt;stroke-linejoin:miter;stroke-opacity:1"
       x="570.099"
       y="247.77721"
       id="text8075-5"
       sodipodi:linespacing="125%"><tspan
         sodipodi:role="line"
         id="tspan8077-0"
         x="570.099"
         y="247.77721"
         style="font-style:normal;font-variant:normal;font-weight:normal;font-stretch:normal;font-size:15px;font-family:Ubuntu;-inkscape-font-specification:Ubuntu">Quartzito</tspan></text>
    <path
       style="fill:none;fill-rule:evenodd;stroke:#000000;stroke-width:0.6;stroke-linecap:butt;stroke-linejoin:miter;stroke-miterlimit:4;stroke-dasharray:none;stroke-opacity:1"
       d="m 547.6855,271.40956 18.75,0"
       id="path8073-3"
       inkscape:connector-curvature="0" />
    <text
       xml:space="preserve"
       style="font-style:normal;font-weight:normal;font-size:40px;line-height:125%;font-family:sans-serif;letter-spacing:0px;word-spacing:0px;fill:#000000;fill-opacity:1;stroke:none;stroke-width:1px;stroke-linecap:butt;stroke-linejoin:miter;stroke-opacity:1"
       x="570.849"
       y="276.27719"
       id="text8075-19"
       sodipodi:linespacing="125%"><tspan
         sodipodi:role="line"
         id="tspan8077-87"
         x="570.849"
         y="276.27719"
         style="font-style:normal;font-variant:normal;font-weight:normal;font-stretch:normal;font-size:15px;font-family:Ubuntu;-inkscape-font-specification:Ubuntu">Arenito</tspan></text>
    <path
       style="fill:none;fill-rule:evenodd;stroke:#000000;stroke-width:0.6;stroke-linecap:butt;stroke-linejoin:miter;stroke-miterlimit:4;stroke-dasharray:none;stroke-opacity:1"
       d="m 313.74111,298.61797 252.69439,0"
       id="path8073-7"
       inkscape:connector-curvature="0" />
    <text
       xml:space="preserve"
       style="font-style:normal;font-weight:normal;font-size:40px;line-height:125%;font-family:sans-serif;letter-spacing:0px;word-spacing:0px;fill:#000000;fill-opacity:1;stroke:none;stroke-width:1px;stroke-linecap:butt;stroke-linejoin:miter;stroke-opacity:1"
       x="569.67902"
       y="303.13202"
       id="text8075-3"
       sodipodi:linespacing="125%"><tspan
         sodipodi:role="line"
         id="tspan8077-2"
         x="569.67902"
         y="303.13202"
         style="font-style:normal;font-variant:normal;font-weight:normal;font-stretch:normal;font-size:15px;font-family:Ubuntu;-inkscape-font-specification:Ubuntu">Folhelho</tspan></text>
    <path
       style="fill:none;fill-rule:evenodd;stroke:#000000;stroke-width:0.6;stroke-linecap:butt;stroke-linejoin:miter;stroke-miterlimit:4;stroke-dasharray:none;stroke-opacity:1"
       d="m 142.76221,326.02742 423.67329,0"
       id="path8073-75"
       inkscape:connector-curvature="0" />
    <text
       xml:space="preserve"
       style="font-style:normal;font-weight:normal;font-size:40px;line-height:125%;font-family:sans-serif;letter-spacing:0px;word-spacing:0px;fill:#000000;fill-opacity:1;stroke:none;stroke-width:1px;stroke-linecap:butt;stroke-linejoin:miter;stroke-opacity:1"
       x="570.849"
       y="330.23215"
       id="text8075-6"
       sodipodi:linespacing="125%"><tspan
         sodipodi:role="line"
         id="tspan8077-5"
         x="570.849"
         y="330.23215"
         style="font-style:normal;font-variant:normal;font-weight:normal;font-stretch:normal;font-size:15px;font-family:Ubuntu;-inkscape-font-specification:Ubuntu">Argila</tspan></text>
    <path
       style="fill:none;fill-rule:evenodd;stroke:#000000;stroke-width:0.6;stroke-linecap:butt;stroke-linejoin:miter;stroke-miterlimit:4;stroke-dasharray:none;stroke-opacity:1"
       d="m 240.55341,353.58096 325.88209,0"
       id="path8073-75-1"
       inkscape:connector-curvature="0" />
    <text
       xml:space="preserve"
       style="font-style:normal;font-weight:normal;font-size:40px;line-height:125%;font-family:sans-serif;letter-spacing:0px;word-spacing:0px;fill:#000000;fill-opacity:1;stroke:none;stroke-width:1px;stroke-linecap:butt;stroke-linejoin:miter;stroke-opacity:1"
       x="570.849"
       y="357.38791"
       id="text8075-6-7"
       sodipodi:linespacing="125%"><tspan
         sodipodi:role="line"
         id="tspan8077-5-1"
         x="570.849"
         y="357.38791"
         style="font-style:normal;font-variant:normal;font-weight:normal;font-stretch:normal;font-size:15px;font-family:Ubuntu;-inkscape-font-specification:Ubuntu">Aluvião</tspan></text>
    <text
       xml:space="preserve"
       style="font-style:normal;font-weight:normal;font-size:40px;line-height:125%;font-family:sans-serif;letter-spacing:0px;word-spacing:0px;fill:#000000;fill-opacity:1;stroke:none;stroke-width:1px;stroke-linecap:butt;stroke-linejoin:miter;stroke-opacity:1"
       x="235"
       y="111.3622"
       id="text13247"
       sodipodi:linespacing="125%"><tspan
         sodipodi:role="line"
         id="tspan13249"
         x="235"
         y="111.3622"
         style="font-size:25px">Resistividade (   )</tspan></text>
    <g
       transform="matrix(0.37625707,0,0,0.37809898,302.76454,-25.934374)"
       id="g13388">
      <g
         style="font-style:normal;font-variant:normal;font-weight:normal;font-stretch:normal;letter-spacing:normal;word-spacing:normal;text-anchor:start;fill:none;fill-opacity:1;fill-rule:evenodd;stroke:#000000;stroke-linecap:butt;stroke-linejoin:miter;stroke-miterlimit:10.43299961;stroke-dasharray:none;stroke-dashoffset:0;stroke-opacity:1"
         id="content"
         transform="matrix(1.0629921,0,0,-1.0629921,-186.02362,789.27165)"
         xml:space="preserve"
         stroke-miterlimit="10.433"
         font-style="normal"
         font-variant="normal"
         font-weight="normal"
         font-stretch="normal"
         font-size-adjust="none"
         letter-spacing="normal"
         word-spacing="normal"><path
           style="fill:#000000;stroke-width:0"
           inkscape:connector-curvature="0"
           d="m 489.72,414.07 -1.24,0 c -0.25,-1.3 -0.45,-2.44 -0.9,-3.64 -0.25,-0.79 -0.4,-1.19 -3.29,-1.19 l -3.98,0 c 0.65,2.79 2.19,5.18 4.43,8.47 2.34,3.53 4.38,6.97 4.38,10.9 0,6.93 -6.72,12.51 -15.14,12.51 -8.57,0 -15.19,-5.68 -15.19,-12.51 0,-3.93 2.04,-7.37 4.38,-10.9 2.19,-3.29 3.79,-5.68 4.44,-8.47 l -3.99,0 c -2.89,0 -3.04,0.4 -3.29,1.14 -0.4,1.15 -0.64,2.44 -0.89,3.69 l -1.25,0 1.65,-8.07 7.96,0 c 1.1,0 1.25,0 1.25,1.05 0,3.48 -1.54,7.87 -2.69,11.06 -1.04,2.88 -2.44,6.82 -2.44,10.55 0,7.98 5.48,11.36 10.01,11.36 4.78,0 10.07,-3.58 10.07,-11.36 0,-3.73 -1.35,-7.52 -2.79,-11.6 -0.75,-2.1 -2.35,-6.58 -2.35,-10.01 0,-1.05 0.16,-1.05 1.3,-1.05 l 7.92,0 z"
           id="path13391" /><path
           style="fill:#000000;stroke-width:0"
           inkscape:connector-curvature="0"
           d="m 496.38,408.94 -0.01,-0.07 -0.02,-0.08 -0.01,-0.07 -0.02,-0.08 -0.03,-0.16 -0.04,-0.16 -0.04,-0.16 -0.03,-0.16 -0.04,-0.16 -0.04,-0.16 -0.01,-0.08 -0.02,-0.07 -0.02,-0.07 -0.01,-0.07 -0.02,-0.07 -0.01,-0.07 -0.01,-0.06 -0.02,-0.06 -0.01,-0.05 -0.01,-0.06 -0.01,-0.05 0,-0.04 -0.01,-0.04 0,-0.04 -0.01,-0.03 0,-0.02 c 0,-0.9 0.7,-1.35 1.45,-1.35 0.6,0 1.5,0.4 1.84,1.4 0.05,0.1 0.65,2.44 0.95,3.68 l 1.1,4.49 c 0.29,1.09 0.59,2.19 0.84,3.34 0.2,0.84 0.6,2.28 0.65,2.48 0.75,1.55 3.39,6.08 8.12,6.08 2.24,0 2.69,-1.84 2.69,-3.49 0,-1.24 -0.35,-2.64 -0.75,-4.13 l -1.39,-5.78 -1,-3.79 c -0.2,-0.99 -0.64,-2.68 -0.64,-2.93 0,-0.9 0.69,-1.35 1.44,-1.35 1.54,0 1.84,1.25 2.24,2.84 0.7,2.79 2.54,10.07 2.99,12.01 0.15,0.65 2.79,6.62 8.22,6.62 2.14,0 2.69,-1.69 2.69,-3.49 0,-2.84 -2.1,-8.51 -3.09,-11.15 -0.45,-1.2 -0.65,-1.75 -0.65,-2.74 0,-2.34 1.75,-4.09 4.09,-4.09 4.68,0 6.52,7.28 6.52,7.67 0,0.5 -0.45,0.5 -0.59,0.5 -0.5,0 -0.5,-0.15 -0.75,-0.89 -0.75,-2.64 -2.35,-6.18 -5.08,-6.18 -0.85,0 -1.2,0.5 -1.2,1.64 0,1.25 0.45,2.44 0.9,3.54 0.95,2.59 3.03,8.12 3.03,10.96 0,3.24 -1.99,5.33 -5.72,5.33 -3.74,0 -6.28,-2.2 -8.12,-4.84 -0.05,0.65 -0.2,2.35 -1.6,3.54 -1.24,1.05 -2.84,1.3 -4.08,1.3 -4.48,0 -6.92,-3.19 -7.77,-4.34 -0.25,2.84 -2.34,4.34 -4.58,4.34 -2.3,0 -3.24,-1.95 -3.69,-2.84 -0.9,-1.75 -1.54,-4.68 -1.54,-4.83 0,-0.5 0.49,-0.5 0.59,-0.5 0.5,0 0.55,0.05 0.85,1.14 0.84,3.54 1.84,5.93 3.64,5.93 0.79,0 1.54,-0.4 1.54,-2.29 0,-1.04 -0.15,-1.59 -0.8,-4.18 z"
           id="path13393" /></g>    </g>
    <g
       id="g26490"
       transform="matrix(0.29868239,0,0,0.29868239,472.12652,31.829537)">
      <g
         word-spacing="normal"
         letter-spacing="normal"
         font-size-adjust="none"
         font-stretch="normal"
         font-weight="normal"
         font-variant="normal"
         font-style="normal"
         stroke-miterlimit="10.433"
         xml:space="preserve"
         transform="matrix(1.0629921,0,0,-1.0629921,-186.02362,789.27165)"
         id="g26492"
         style="font-style:normal;font-variant:normal;font-weight:normal;font-stretch:normal;letter-spacing:normal;word-spacing:normal;text-anchor:start;fill:none;fill-opacity:1;fill-rule:evenodd;stroke:#000000;stroke-linecap:butt;stroke-linejoin:miter;stroke-miterlimit:10.43299961;stroke-dasharray:none;stroke-dashoffset:0;stroke-opacity:1"><path
           id="path26494"
           d="m 457.64,397.38 0,-0.02 -0.01,-0.03 0,-0.03 -0.01,-0.02 -0.01,-0.03 0,-0.02 -0.01,-0.03 0,-0.02 -0.01,-0.02 0,-0.02 -0.01,-0.02 0,-0.02 -0.01,-0.02 0,-0.02 -0.01,-0.04 -0.01,-0.03 -0.01,-0.04 0,-0.03 -0.01,-0.03 0,-0.02 -0.01,-0.03 0,-0.02 -0.01,-0.02 0,-0.02 0,-0.02 0,-0.02 -0.01,-0.02 0,-0.01 0,-0.02 0,-0.01 0,-0.01 0,-0.01 0,-0.02 0,-0.02 0,-0.02 0,-0.01 c 0,-0.75 0.54,-1.35 1.39,-1.35 1.04,0 1.64,0.9 1.74,1.05 0.25,0.44 1.85,7.12 3.19,12.5 1,-1.99 2.59,-3.34 4.93,-3.34 l -0.05,1.1 c -3.49,0 -4.28,3.98 -4.28,4.43 0,0.2 0.25,1.2 0.4,1.84 1.39,5.58 1.89,7.38 2.98,9.37 2.15,3.63 4.64,4.73 6.18,4.73 1.84,0 3.44,-1.44 3.44,-4.88 0,-2.74 -1.44,-8.32 -2.79,-10.76 -1.65,-3.14 -4.04,-4.73 -5.93,-4.73 l 0,0 0.05,-1.1 c 5.83,0 12.26,7.03 12.26,14.45 0,5.28 -3.29,8.12 -6.93,8.12 -4.83,0 -10.06,-4.98 -11.55,-11.06 z"
           inkscape:connector-curvature="0"
           style="fill:#000000;stroke-width:0" /><polygon
           id="polygon26496"
           points="488.87,441.37 493.7,441.37 493.7,443.36 486.88,443.36 486.88,393.55 493.7,393.55 493.7,395.54 488.87,395.54 "
           style="fill:#000000;stroke-width:0" /><path
           id="path26498"
           d="m 528.72,414.07 -1.24,0 c -0.25,-1.3 -0.45,-2.44 -0.9,-3.64 -0.25,-0.79 -0.4,-1.19 -3.29,-1.19 l -3.98,0 c 0.65,2.79 2.19,5.18 4.43,8.47 2.34,3.53 4.38,6.97 4.38,10.9 0,6.93 -6.72,12.51 -15.14,12.51 -8.57,0 -15.19,-5.68 -15.19,-12.51 0,-3.93 2.04,-7.37 4.38,-10.9 2.19,-3.29 3.79,-5.68 4.44,-8.47 l -3.99,0 c -2.89,0 -3.04,0.4 -3.29,1.14 -0.4,1.15 -0.64,2.44 -0.89,3.69 l -1.25,0 1.65,-8.07 7.96,0 c 1.1,0 1.25,0 1.25,1.05 0,3.48 -1.54,7.87 -2.69,11.06 -1.04,2.88 -2.44,6.82 -2.44,10.55 0,7.98 5.48,11.36 10.01,11.36 4.79,0 10.07,-3.58 10.07,-11.36 0,-3.73 -1.35,-7.52 -2.79,-11.6 -0.75,-2.1 -2.35,-6.58 -2.35,-10.01 0,-1.05 0.16,-1.05 1.3,-1.05 l 7.92,0 z"
           inkscape:connector-curvature="0"
           style="fill:#000000;stroke-width:0" /><path
           id="path26500"
           d="m 535.38,408.94 -0.01,-0.07 -0.02,-0.08 -0.01,-0.07 -0.02,-0.08 -0.03,-0.16 -0.04,-0.16 -0.04,-0.16 -0.03,-0.16 -0.04,-0.16 -0.04,-0.16 -0.01,-0.08 -0.02,-0.07 -0.02,-0.07 -0.01,-0.07 -0.02,-0.07 -0.01,-0.07 -0.01,-0.06 -0.02,-0.06 -0.01,-0.05 -0.01,-0.06 -0.01,-0.05 0,-0.04 -0.01,-0.04 0,-0.04 -0.01,-0.03 0,-0.02 c 0,-0.9 0.7,-1.35 1.45,-1.35 0.6,0 1.5,0.4 1.84,1.4 0.05,0.1 0.65,2.44 0.95,3.68 l 1.1,4.49 c 0.29,1.09 0.59,2.19 0.84,3.34 0.2,0.84 0.6,2.28 0.65,2.48 0.75,1.55 3.39,6.08 8.12,6.08 2.24,0 2.69,-1.84 2.69,-3.49 0,-1.24 -0.35,-2.64 -0.75,-4.13 l -1.39,-5.78 -1,-3.79 c -0.2,-0.99 -0.65,-2.68 -0.65,-2.93 0,-0.9 0.7,-1.35 1.45,-1.35 1.54,0 1.84,1.25 2.24,2.84 0.7,2.79 2.54,10.07 2.99,12.01 0.15,0.65 2.79,6.62 8.22,6.62 2.14,0 2.69,-1.69 2.69,-3.49 0,-2.84 -2.1,-8.51 -3.09,-11.15 -0.45,-1.2 -0.65,-1.75 -0.65,-2.74 0,-2.34 1.75,-4.09 4.09,-4.09 4.68,0 6.52,7.28 6.52,7.67 0,0.5 -0.45,0.5 -0.59,0.5 -0.5,0 -0.5,-0.15 -0.75,-0.89 -0.75,-2.64 -2.35,-6.18 -5.08,-6.18 -0.85,0 -1.2,0.5 -1.2,1.64 0,1.25 0.45,2.44 0.9,3.54 0.95,2.59 3.03,8.12 3.03,10.96 0,3.24 -1.99,5.33 -5.72,5.33 -3.74,0 -6.28,-2.2 -8.12,-4.84 -0.05,0.65 -0.2,2.35 -1.6,3.54 -1.24,1.05 -2.84,1.3 -4.08,1.3 -4.48,0 -6.93,-3.19 -7.77,-4.34 -0.25,2.84 -2.34,4.34 -4.58,4.34 -2.3,0 -3.24,-1.95 -3.69,-2.84 -0.9,-1.75 -1.54,-4.68 -1.54,-4.83 0,-0.5 0.49,-0.5 0.59,-0.5 0.5,0 0.55,0.05 0.85,1.14 0.84,3.54 1.84,5.93 3.64,5.93 0.79,0 1.54,-0.4 1.54,-2.29 0,-1.04 -0.15,-1.59 -0.8,-4.18 z"
           inkscape:connector-curvature="0"
           style="fill:#000000;stroke-width:0" /><polygon
           id="polygon26502"
           points="580.93,441.37 580.93,395.54 576.1,395.54 576.1,393.55 582.92,393.55 582.92,443.36 576.1,443.36 576.1,441.37 "
           style="fill:#000000;stroke-width:0" /></g>    </g>
  </g>
</svg>
